<svg version="1.1" id="Layer_1" xmlns="http://www.w3.org/2000/svg" xmlns:xlink="http://www.w3.org/1999/xlink" x="0px" y="0px"
	 width="100%" viewBox="0 0 1024 1024" enable-background="new 0 0 1024 1024" xml:space="preserve">
<path fill="currentColor" opacity="1.000000" stroke="none" 
	d="
M235.449982,1025.000000 
	C219.785995,1005.870544 209.485031,984.140564 201.451340,960.815918 
	C193.220047,965.425659 186.455551,961.968384 179.999619,957.473022 
	C165.652710,947.482666 158.954010,932.521179 153.793213,916.610535 
	C153.181244,914.723877 152.737411,912.782654 151.933136,909.829407 
	C149.455139,916.796692 149.083069,923.176453 148.438507,929.423401 
	C147.704712,936.535278 147.646011,943.718750 147.355179,950.873596 
	C147.237274,953.773621 147.261871,957.014343 143.883331,957.862732 
	C140.161118,958.797546 138.638474,955.637939 137.356491,952.925354 
	C132.533447,942.720520 130.740845,931.673096 128.848160,920.700745 
	C124.095413,893.148010 123.752136,865.318115 125.013336,837.523193 
	C126.250298,810.262634 130.415039,783.298950 136.190079,756.622681 
	C136.988831,752.932983 136.243271,751.275024 132.694260,749.877014 
	C119.562515,744.704102 107.646027,737.445435 97.209320,727.884033 
	C95.004623,725.864258 92.815468,723.760803 90.984886,721.410950 
	C83.839981,712.239502 83.632172,704.878296 90.785774,695.551880 
	C101.836227,681.144958 113.458717,667.172913 124.374542,652.667297 
	C145.929993,624.023071 166.220215,594.564697 182.353561,562.384277 
	C188.085526,550.951050 189.270813,538.477417 192.482895,526.487976 
	C198.315262,504.717957 205.394577,483.434814 214.977432,463.044952 
	C217.330261,458.038696 217.165649,454.595093 213.962875,449.600525 
	C192.292099,415.805908 175.342712,379.696503 162.795471,341.531708 
	C157.062042,324.092346 152.730499,306.367767 150.974426,288.055115 
	C150.427277,282.349304 150.877457,276.741638 152.274353,271.212769 
	C154.553833,262.190613 159.969955,256.351440 169.268967,254.204666 
	C174.476761,253.002411 179.696198,251.905640 185.019592,251.741425 
	C245.202179,249.884796 303.748260,259.284698 360.924408,277.722809 
	C373.949585,281.923157 386.449951,287.485687 398.005646,294.908173 
	C400.682678,296.627686 402.293671,296.234192 404.419128,294.128326 
	C423.225159,275.495361 444.844482,273.660370 468.408813,283.576355 
	C476.123627,286.822784 483.472595,290.718231 490.165710,295.734741 
	C492.858337,297.752869 495.315948,298.443146 498.846680,297.923553 
	C516.995178,295.252686 535.031799,296.154205 552.777832,301.010315 
	C554.747986,301.549438 556.296509,301.461578 557.900879,300.250244 
	C578.821533,284.454407 602.978394,275.272827 627.355652,266.691498 
	C669.123047,251.988495 712.133667,242.574966 756.146545,237.943069 
	C783.854370,235.027115 811.658875,234.496399 839.453979,236.807800 
	C847.243286,237.455566 854.947510,238.938461 862.395264,241.469955 
	C874.265869,245.504745 879.010071,251.978668 879.408630,264.375458 
	C879.936646,280.798279 875.583679,296.359619 870.999084,311.847382 
	C860.338135,347.862061 844.373230,381.475311 824.268860,413.126984 
	C821.330688,417.752808 820.910767,420.982452 824.288940,425.872498 
	C839.012146,447.185120 847.593445,471.447784 856.196655,495.608093 
	C868.788147,530.967957 877.512512,567.284973 882.502808,604.510010 
	C885.049011,623.503174 886.835083,642.525879 886.303101,661.703125 
	C886.195862,665.566406 887.295776,668.800354 889.364807,671.992065 
	C902.873047,692.830261 915.778809,714.030334 927.234680,736.082275 
	C929.841003,741.099426 932.458191,746.084839 933.448792,751.795959 
	C934.575073,758.289124 932.264954,763.175415 927.265198,767.082520 
	C917.535706,774.685486 905.920593,778.077576 894.247559,780.589844 
	C886.818176,782.188721 884.407043,785.616455 883.027649,792.848267 
	C876.577026,826.666931 866.531677,859.468445 850.708923,890.138855 
	C846.302429,898.680237 845.142944,907.286011 844.288391,916.357971 
	C841.942383,941.264343 838.455872,965.936157 828.360168,989.155701 
	C826.294495,993.906799 823.940002,998.516968 820.882080,1002.688049 
	C819.387512,1004.726624 817.784302,1007.739014 814.614502,1006.507202 
	C811.734558,1005.388000 811.633850,1002.325928 811.837769,999.592773 
	C812.295837,993.453247 812.994202,987.328857 813.333862,981.183899 
	C814.213318,965.272034 813.691833,949.388000 811.895508,933.312683 
	C804.793274,963.891052 791.941406,989.763184 757.753967,999.854309 
	C771.747070,1007.561279 785.133484,1013.890564 795.858276,1024.694092 
	C792.638733,1025.000000 789.277405,1025.000000 785.241028,1024.748291 
	C765.948669,1010.404541 744.560425,1002.225281 722.538940,995.377930 
	C719.109558,994.311646 716.273987,995.109863 713.161499,996.845825 
	C696.175354,1006.319946 678.297058,1013.516296 658.768799,1015.348999 
	C651.907959,1015.992859 647.926453,1019.413330 645.000000,1025.000000 
	C642.958313,1025.000000 640.916687,1025.000000 638.452026,1024.652344 
	C638.965271,1021.347290 642.057983,1019.567383 642.705933,1016.402344 
	C633.257996,1012.828003 631.747864,1009.255981 635.293945,999.796570 
	C637.111328,994.948547 639.505554,990.421509 642.043823,985.910400 
	C646.774536,977.502930 651.124695,968.881165 655.623657,960.343506 
	C656.325684,959.011230 657.109985,957.629639 656.228027,956.108093 
	C650.861572,946.850769 647.812988,936.560852 643.208557,926.969116 
	C640.561035,921.454163 635.445435,919.862671 630.013367,918.567871 
	C629.099609,921.091187 629.262146,923.014771 629.791138,924.872559 
	C631.189575,926.429077 634.365906,924.206604 634.736206,927.209717 
	C635.012634,929.452087 633.063477,930.710083 631.662170,932.074829 
	C630.475342,933.230469 629.162903,934.279419 627.807312,935.235596 
	C621.092651,939.971985 613.593506,943.243896 606.053955,946.315430 
	C579.060547,957.312927 550.975098,964.985779 523.079346,973.227234 
	C515.743713,975.394409 508.390198,977.578430 501.517578,980.972900 
	C494.827759,984.277100 491.918121,990.347534 489.798859,997.094055 
	C493.023987,998.248535 493.594666,995.970947 494.710083,994.720947 
	C499.924072,988.877747 504.553833,988.525330 509.954712,994.039551 
	C518.455811,1002.719238 526.770813,1011.581177 535.168579,1020.362183 
	C536.452148,1021.704346 537.489136,1023.189697 538.000000,1025.000000 
	C535.958313,1025.000000 533.916687,1025.000000 531.275024,1024.708496 
	C524.205811,1017.532288 517.672729,1010.705811 511.297485,1003.734985 
	C508.594666,1000.779663 506.686951,1001.258362 504.810608,1004.472717 
	C501.026184,1010.955872 498.347961,1017.904968 496.000000,1025.000000 
	C494.285645,1025.000000 492.571289,1025.000000 490.368469,1024.611694 
	C490.872223,1017.973083 493.920441,1012.394470 496.417450,1006.120117 
	C483.610962,1001.971008 471.442108,998.325928 458.445618,1002.511292 
	C455.834930,1003.351990 453.280426,1004.448425 452.223938,1007.107849 
	C449.951782,1012.827637 448.272949,1018.713013 449.000000,1025.000000 
	C446.958344,1025.000000 444.916656,1025.000000 442.582153,1024.622681 
	C442.501434,1017.869324 443.883545,1011.663879 445.735779,1004.083130 
	C438.646515,1011.332397 433.049866,1017.928284 428.000000,1025.000000 
	C425.629425,1025.000000 423.258881,1025.000000 420.561493,1024.683594 
	C428.476929,1013.470642 437.548462,1003.275391 446.935333,993.376465 
	C451.067352,989.018860 453.695618,989.331421 458.374329,993.655090 
	C459.192505,994.411255 459.763672,995.737305 461.212646,995.076477 
	C462.992035,994.265076 462.095917,992.861877 461.852814,991.615906 
	C460.401428,984.176575 457.444305,977.845337 450.556732,973.656189 
	C445.739685,970.726379 441.215820,967.179443 438.327454,962.105347 
	C436.858582,959.524902 435.482971,956.810608 437.880310,954.175781 
	C440.744141,953.802612 441.235352,957.040955 443.655304,957.288818 
	C443.655304,954.862122 443.679108,952.556885 443.649689,950.252319 
	C443.606689,946.885742 442.245819,945.639160 438.925293,947.215637 
	C435.320221,948.927124 431.669067,950.546509 427.999237,952.115417 
	C421.391449,954.940247 417.478333,959.802734 415.772675,966.835388 
	C414.050537,973.936035 411.872253,980.932861 409.711090,987.918640 
	C405.880219,1000.301636 401.911194,1012.641846 398.000000,1025.000000 
	C395.958344,1025.000000 393.916656,1025.000000 391.427032,1024.617676 
	C392.872192,1018.262024 394.765320,1012.288696 396.617676,1006.444031 
	C394.575562,1004.779785 392.762726,1005.491272 390.995514,1005.678040 
	C385.870575,1006.219849 380.756287,1007.017212 375.617126,1007.242737 
	C355.831665,1008.110901 336.068298,1009.167480 316.656952,1013.451477 
	C305.609802,1015.889526 294.666931,1018.726135 285.000000,1025.000000 
	C281.638702,1025.000000 278.277435,1025.000000 274.530090,1024.663574 
	C275.504578,1022.120544 277.621124,1020.794189 279.751404,1019.469238 
	C289.055206,1013.683044 299.251587,1010.137024 309.842377,1007.683960 
	C317.087891,1006.005615 324.406311,1004.641968 332.172577,1003.038513 
	C320.971649,979.523010 313.912628,955.315002 313.597137,928.295227 
	C314.934143,929.531555 315.409271,929.777222 315.578674,930.158630 
	C316.794281,932.894958 318.021484,935.630066 319.109161,938.418640 
	C327.343689,959.529602 338.038452,979.150330 353.251984,996.166077 
	C356.312378,999.588989 359.428406,1000.961609 364.039215,1000.843384 
	C374.376495,1000.578308 384.622711,999.239014 394.928680,998.813904 
	C398.344513,998.672974 399.996704,997.532654 400.885498,994.249084 
	C403.753113,983.655029 406.891022,973.134460 409.860107,962.567444 
	C411.504089,956.716675 414.494080,951.944580 419.928192,948.874573 
	C422.586578,947.372742 425.117737,945.645630 428.109985,943.767212 
	C426.685913,943.247803 425.926483,942.893738 425.128632,942.690979 
	C393.241211,934.587036 363.438477,921.571289 335.452850,904.374390 
	C310.579041,889.089783 287.986023,871.145325 270.225891,847.636353 
	C264.171387,839.622009 258.912048,831.138000 254.097351,820.793457 
	C254.291916,825.094360 254.213165,827.944885 254.581314,830.736450 
	C256.753510,847.206848 258.804230,863.697998 261.318054,880.117554 
	C266.443634,913.596252 274.729767,946.229797 288.251160,977.401733 
	C289.640961,980.605774 290.963562,983.873901 291.288177,987.393127 
	C291.936920,994.426514 290.063293,996.516907 283.050629,996.536255 
	C277.524048,996.551514 272.102112,995.580383 266.828674,994.030701 
	C241.797043,986.674561 220.924881,973.331726 205.844330,951.014404 
	C214.073578,978.354187 226.150391,1003.166199 244.000000,1025.000000 
	C241.299988,1025.000000 238.599976,1025.000000 235.449982,1025.000000 
M159.535782,272.171906 
	C158.565186,275.205780 158.310959,278.310730 158.274597,281.494995 
	C158.095718,297.162140 161.723999,312.242950 165.930557,327.101685 
	C176.608200,364.818085 193.297394,399.990082 212.495956,434.031616 
	C215.218719,438.859436 217.721359,443.864960 222.001389,448.197906 
	C224.101715,444.202301 225.896378,440.648499 227.826035,437.169586 
	C228.981689,435.086090 228.579544,433.553955 226.966751,431.841400 
	C218.548019,422.901886 212.396149,412.402588 206.795486,401.590271 
	C204.431290,397.026154 202.705231,392.131409 200.689117,387.386963 
	C201.203262,387.123016 201.717407,386.859039 202.231552,386.595093 
	C210.601929,401.713806 219.641464,416.347443 231.873337,429.527435 
	C233.792786,426.275146 235.229340,423.478394 237.010559,420.921722 
	C238.917496,418.184631 239.311752,415.913300 237.291183,412.831207 
	C234.772354,408.989014 234.586060,404.369171 234.703827,399.792969 
	C234.761383,397.555939 236.499435,395.366089 235.031433,393.093109 
	C226.342514,392.331085 222.793564,387.786407 224.553680,379.365479 
	C227.096191,367.201141 233.360550,357.200745 242.697128,349.059875 
	C244.407578,347.568481 246.543945,346.498016 247.679260,344.394409 
	C245.088898,342.138641 242.517792,340.045715 240.119644,337.770447 
	C237.688629,335.464020 235.745514,332.746521 234.265060,329.723053 
	C230.260178,321.544006 232.748764,313.875946 240.861282,310.004974 
	C245.373703,307.851837 250.152725,306.497223 255.110077,305.560181 
	C261.398193,304.371643 267.782623,305.062103 275.460083,304.482666 
	C265.184052,299.078491 255.700165,295.478699 246.196548,291.956909 
	C228.845963,285.527283 211.233521,280.046783 192.782028,277.699463 
	C183.750824,276.550537 179.059921,279.860535 176.949234,288.819061 
	C176.131454,292.290009 176.359604,295.769867 176.216476,299.255463 
	C175.976120,305.108093 176.576691,310.907074 177.337143,316.739563 
	C172.959076,307.264465 170.263000,297.562134 172.533249,287.097961 
	C174.708374,277.072266 179.901230,272.627258 190.140106,271.924377 
	C194.504013,271.624756 198.795349,272.406830 203.032318,273.184753 
	C232.282776,278.555450 259.729126,289.068634 285.903625,302.961243 
	C298.550476,309.673798 311.365906,316.328369 321.903351,326.215149 
	C325.745209,329.819763 328.872345,331.046661 334.118439,329.515137 
	C343.984894,326.634857 353.922852,327.302094 363.257233,332.094269 
	C367.046906,334.039886 369.951477,336.794830 369.952820,341.536072 
	C368.107422,342.048767 367.189270,340.960571 366.159149,340.192078 
	C360.489410,335.962128 354.187592,334.005157 347.052582,334.022369 
	C335.277832,334.050751 324.839966,338.149109 315.089081,344.157593 
	C293.262817,357.606812 276.855286,376.688904 261.761475,396.917145 
	C228.443176,441.569153 207.417267,491.729187 195.778625,546.025452 
	C190.994370,568.344910 187.231171,590.772766 187.230621,614.863098 
	C193.824692,597.004456 201.629730,580.805908 205.732727,563.244751 
	C206.871597,558.370300 208.687881,553.671875 211.045349,549.264343 
	C212.086868,547.317200 212.738358,544.755371 216.263641,543.372742 
	C207.211716,571.486145 200.583603,599.366333 203.897278,628.013550 
	C208.438507,667.273315 219.470367,697.311707 230.443771,707.022217 
	C224.113861,691.474731 221.151047,676.267700 223.712097,670.339966 
	C230.844528,700.877625 242.659470,728.442505 265.850494,751.640564 
	C253.712509,716.277710 251.753754,681.042297 252.792694,645.454346 
	C253.745193,612.828430 268.609924,550.212769 277.597778,542.614014 
	C274.773315,555.652405 270.290497,567.799316 268.224335,581.820068 
	C281.410736,569.557556 295.883698,561.433411 310.604523,553.692627 
	C312.366516,552.766052 312.997223,550.987732 313.763367,549.331482 
	C322.577148,530.278687 330.884979,511.015137 338.261536,491.351318 
	C340.689880,484.878143 342.179596,478.375122 341.839966,471.386597 
	C341.434662,463.047485 342.888031,454.793640 343.998627,446.565155 
	C344.405273,443.552338 344.346100,440.014038 347.100098,437.477356 
	C348.918701,439.292816 348.329895,441.222351 348.187256,442.911438 
	C346.824799,459.046021 346.822784,475.161835 348.296234,491.294312 
	C349.616669,505.751007 352.741425,519.845825 356.311035,533.871582 
	C357.025330,536.678101 358.359680,537.316589 361.312988,536.994385 
	C367.425049,536.327576 373.599365,536.200500 379.684753,537.774231 
	C385.770325,539.348145 385.808838,539.162842 385.174774,532.825317 
	C384.404144,525.122437 385.383820,517.592590 387.133667,509.786072 
	C389.499695,511.097656 388.977631,512.550537 388.999939,513.803101 
	C389.100891,519.468140 389.137909,525.134460 389.249146,530.799194 
	C389.349762,535.921265 388.562897,541.360962 394.823547,544.554871 
	C390.971222,547.291016 391.422485,550.278687 392.068909,553.766968 
	C394.411682,566.409180 397.873291,578.708496 402.348816,590.738892 
	C416.144440,627.822205 438.751434,657.132507 475.663574,673.828613 
	C480.977356,676.232239 486.211029,678.838989 492.242645,678.860107 
	C498.386536,678.881592 500.833405,676.030823 499.361603,670.032043 
	C498.332642,665.838074 496.879333,661.739319 495.463776,657.650574 
	C486.063507,630.499084 479.866699,602.605286 476.929901,574.059570 
	C474.864868,553.987793 474.836975,533.808411 476.926056,513.715027 
	C477.481995,508.367706 477.643829,502.687286 481.134796,497.882782 
	C478.070404,538.737183 481.309753,578.965698 490.884003,619.975098 
	C513.792847,596.751343 529.999146,570.774780 543.040283,541.448303 
	C537.952698,541.448303 534.005188,541.448242 530.057617,541.448303 
	C528.436951,541.448364 526.431946,542.049255 525.718445,539.996094 
	C524.885620,537.599243 527.141541,536.921082 528.590881,535.965637 
	C532.381653,533.466797 536.527222,531.196350 540.942200,530.796082 
	C547.796509,530.174622 549.820923,525.809692 551.600220,520.273254 
	C561.871460,488.313263 568.057617,455.839050 564.726379,422.071838 
	C564.491821,419.694550 564.424072,417.300812 564.278687,414.914703 
	C568.054138,418.805420 568.606079,423.672180 569.298035,428.455933 
	C570.530212,436.974854 570.859070,445.529999 574.024719,453.832031 
	C584.726746,481.898804 597.810730,508.855621 611.010986,535.777771 
	C612.279541,538.364929 614.024353,539.866638 616.724182,540.864929 
	C630.955627,546.127258 644.962524,551.909119 657.962646,559.860474 
	C658.499207,560.188660 659.103516,560.580933 659.869202,559.739319 
	C658.257446,550.702515 654.851746,541.951782 653.467529,532.716125 
	C669.700195,566.057983 675.935730,601.873718 679.340149,638.370117 
	C682.801147,675.472412 679.201538,711.932739 668.037476,748.098389 
	C673.408997,746.362061 676.821106,743.994385 682.062561,738.918640 
	C702.534546,719.094116 712.863281,694.297974 717.739990,666.739380 
	C719.281982,658.025696 720.117859,649.224060 721.690430,640.494629 
	C725.258789,657.860962 721.878357,674.720032 718.041199,691.558533 
	C743.249268,648.806091 746.254761,603.361389 734.268616,555.746704 
	C740.015198,565.874878 743.438110,576.739685 752.245300,584.733215 
	C762.921509,594.423096 772.660889,601.366699 780.474670,602.676086 
	C759.645081,577.438782 745.851257,548.354004 734.837646,517.793030 
	C732.580383,511.529297 731.040833,505.035034 730.196594,498.409424 
	C730.033630,497.130676 729.124084,495.414612 731.230774,494.908447 
	C735.375122,505.573578 739.189087,516.199219 743.597351,526.572327 
	C754.377869,551.940308 767.103577,576.254272 783.615906,598.454773 
	C785.250427,600.652344 787.484314,603.166321 785.468140,606.123352 
	C783.244324,609.384705 779.921326,608.471558 776.833130,607.519653 
	C769.741455,605.333740 763.282715,601.910889 757.687378,597.036255 
	C753.340088,593.248901 749.208069,589.214355 744.529297,584.870850 
	C747.032776,603.174072 747.300720,620.878357 744.294312,638.523254 
	C740.496765,660.811096 733.710449,681.993958 718.622314,699.397766 
	C713.084290,705.785828 708.951660,712.831665 704.827087,720.029480 
	C703.612427,722.149170 703.155457,724.259766 703.201233,726.675781 
	C703.674194,751.661926 703.343689,776.593811 700.470459,801.490051 
	C697.361572,828.428101 693.656128,855.251282 688.214783,881.818359 
	C681.190857,916.112183 670.249878,949.000427 652.814209,979.526306 
	C648.684998,986.755554 644.183350,993.793213 640.438965,1001.214600 
	C637.169861,1007.694031 638.570496,1009.467224 645.733887,1009.751526 
	C655.321106,1010.132141 664.626709,1008.494751 673.819092,1006.001648 
	C713.173889,995.328125 743.126953,972.173523 764.563354,937.682007 
	C766.705444,934.235291 769.136230,930.968079 771.570984,927.416260 
	C772.971680,929.190002 772.277954,930.292969 771.970276,931.335144 
	C769.395081,940.058655 765.294983,948.035095 759.734802,955.206970 
	C755.916931,960.131653 752.874390,965.201721 752.015503,971.618530 
	C751.264099,977.231689 748.723083,982.417114 746.377869,987.584839 
	C745.311462,989.934631 744.479309,992.390747 743.448547,995.035400 
	C744.576111,995.138550 745.067749,995.284546 745.523926,995.210815 
	C770.346191,991.200378 788.241028,978.207031 797.448669,954.449829 
	C807.159790,929.393616 811.782898,903.278381 812.789429,876.476257 
	C812.844116,875.019470 812.101868,873.254822 813.649536,872.103210 
	C815.176880,872.898926 815.217590,874.106689 815.418213,875.247375 
	C816.991089,884.190735 816.570618,893.165894 815.716248,902.127258 
	C815.430359,905.126160 815.087036,908.084717 815.653687,911.073059 
	C819.580688,931.783386 820.418945,952.721375 819.981384,973.721313 
	C819.862000,979.453186 819.080933,985.172058 819.428284,991.975647 
	C823.432190,984.439087 825.686707,977.364136 827.717102,970.187866 
	C836.164551,940.330200 838.303589,909.612549 839.481995,878.866638 
	C840.765320,845.385498 838.937439,811.915466 836.464722,778.528381 
	C834.156738,747.364563 830.696411,716.313232 825.841248,685.409912 
	C819.671936,646.142273 811.952393,607.201111 803.059570,568.469849 
	C793.543030,527.021973 776.202393,488.722107 756.299072,451.460938 
	C740.402588,421.701080 719.256653,396.193146 693.023621,374.938934 
	C691.179199,373.444580 689.250305,372.054596 687.360657,370.616058 
	C695.263977,386.755524 703.300659,402.405579 709.820923,418.808990 
	C718.718506,441.193024 725.007629,464.194885 723.237183,469.938965 
	C722.666626,468.557739 722.186829,467.538696 721.817322,466.481049 
	C711.473572,436.874237 699.471741,407.985260 684.154053,380.569946 
	C674.084656,362.548096 661.975098,346.122467 645.719482,333.064484 
	C633.407410,323.174316 619.886658,319.991211 604.573303,324.877991 
	C594.692200,328.031219 586.302673,333.612579 578.171265,339.770874 
	C576.688110,340.894135 575.347046,342.742737 573.021423,341.698822 
	C572.242981,339.830444 573.550171,338.744232 574.450867,337.672943 
	C591.495117,317.400208 623.989502,307.471008 648.517944,327.281769 
	C651.347717,329.567322 653.122253,329.419250 655.584961,326.826752 
	C664.158264,317.801605 674.513794,311.078125 685.139160,304.780640 
	C714.550598,287.348969 745.861206,274.381683 778.827271,265.431305 
	C797.480042,260.367004 816.321838,256.180847 835.765259,255.739746 
	C844.278259,255.546631 851.843933,257.859894 855.728760,266.213562 
	C860.262817,275.963531 858.119995,285.427429 853.465210,294.573303 
	C853.315552,289.469604 853.934204,284.410522 853.642090,279.327576 
	C852.952698,267.331604 846.971802,261.154510 836.013672,261.504272 
	C831.866211,261.636688 827.724060,262.209503 823.599487,262.737671 
	C801.560059,265.559814 780.204041,271.206573 759.167603,278.241364 
	C741.874329,284.024384 725.153442,291.128754 708.815002,299.212158 
	C725.994995,295.256439 742.913452,296.179932 759.478149,301.844208 
	C765.906006,304.042206 772.984253,306.550232 774.113342,314.575104 
	C775.256592,322.700867 769.347290,327.282867 763.597046,331.428162 
	C760.043335,333.990051 756.114746,336.031891 752.036072,338.499817 
	C753.869934,339.623688 755.313843,340.427307 756.673462,341.354431 
	C768.687683,349.547241 777.142822,360.337036 780.451782,374.692841 
	C782.405273,383.168152 777.877258,388.695435 769.196655,388.826569 
	C768.423401,388.838287 767.563354,388.317108 767.110107,389.292206 
	C768.358826,394.358459 770.145691,399.290283 770.713013,404.358612 
	C772.218933,417.811523 771.698792,430.860809 759.391296,439.999847 
	C756.045898,442.484039 758.447388,443.592438 760.301941,445.260742 
	C786.927246,425.147247 805.476929,398.608063 822.992432,371.159851 
	C809.678955,402.652283 790.687378,429.814087 762.756287,450.355438 
	C766.303223,456.811676 769.712158,463.016571 773.362549,469.661102 
	C781.910767,460.176147 789.212036,450.517883 796.467590,440.808868 
	C826.756958,400.276672 850.166077,356.216431 864.663269,307.624084 
	C868.944153,293.275085 872.667542,278.766785 872.727478,263.607269 
	C872.752197,257.355164 870.423645,252.734848 864.494385,250.050980 
	C859.596558,247.833969 854.520691,246.253601 849.257935,245.414902 
	C816.885742,240.255920 784.466370,242.304337 752.147339,245.627197 
	C726.993225,248.213425 702.125061,252.837448 677.640198,259.327881 
	C633.555054,271.013977 590.161743,284.322296 552.719421,311.828308 
	C551.211487,312.936066 549.508362,314.286011 547.363037,313.371399 
	C546.507019,310.805969 549.784363,309.876373 549.469910,307.208374 
	C533.905396,304.055725 518.340393,301.642639 501.658417,304.640594 
	C511.660858,313.670166 520.299011,322.623657 526.027100,335.011566 
	C521.538147,334.417633 520.199768,331.694672 518.332214,329.688782 
	C503.345123,313.590912 486.970886,299.282898 466.561066,290.381073 
	C457.032501,286.225159 447.152008,283.258362 436.525604,284.832794 
	C421.694489,287.030273 411.240204,296.148193 402.134430,307.111694 
	C380.953369,332.614044 367.817688,362.436432 356.327118,393.122742 
	C355.698517,394.801361 355.972809,397.108978 352.482697,398.388336 
	C360.006378,362.537567 373.978485,330.686676 396.295929,303.081177 
	C395.605957,301.209900 394.418610,300.868530 393.441284,300.271332 
	C375.477905,289.294495 355.725739,282.781189 335.573090,277.401611 
	C305.157501,269.282379 274.303345,263.452484 242.924484,260.594147 
	C221.841553,258.673676 200.717880,257.093506 179.597031,259.520355 
	C171.486603,260.452301 162.430069,260.876831 159.535782,272.171906 
M375.572998,594.844238 
	C367.489136,581.062805 360.907776,566.552551 355.185730,551.481384 
	C342.927124,553.965210 331.386353,557.055725 319.953979,560.613159 
	C316.515137,561.683167 314.433990,563.635681 312.914520,566.982971 
	C304.447296,585.635437 295.879608,604.248718 286.036835,622.233032 
	C278.516296,635.974243 271.087097,649.794983 259.866119,661.034424 
	C258.071869,662.831665 258.284332,664.969238 258.311157,667.098022 
	C258.671326,695.680847 261.695374,723.850464 271.367096,750.988831 
	C272.247253,753.458557 273.669342,756.368225 270.843658,758.244934 
	C268.305969,759.930542 266.060333,757.743225 264.188202,756.219421 
	C260.499481,753.216980 257.012146,749.967041 253.458771,746.834717 
	C251.933304,748.180664 252.378159,749.605652 252.368790,750.868103 
	C252.294693,760.866150 252.043121,770.870483 252.294525,780.861633 
	C252.729614,798.152588 257.351349,814.346924 266.011353,829.341370 
	C277.522797,849.273193 293.103180,865.663391 311.207214,879.568665 
	C343.516296,904.384460 379.320465,922.499817 418.540131,933.685669 
	C441.783539,940.315002 465.204620,943.868652 489.495026,939.541565 
	C525.867126,933.062134 561.213989,923.402344 594.953979,908.187195 
	C626.409485,894.002258 654.809937,875.636108 678.388306,849.970398 
	C686.917664,840.685852 690.803894,830.596191 691.882324,818.352905 
	C693.340332,801.801392 695.634460,785.306274 696.349915,768.699341 
	C696.854553,756.986450 696.447510,745.234253 696.447510,732.270264 
	C690.232422,739.904053 684.278137,746.146545 676.755859,750.573608 
	C673.264465,752.628296 669.461731,756.317627 665.456604,753.266052 
	C661.899841,750.556091 663.447754,745.811584 664.344971,742.013428 
	C668.703979,723.558960 672.499695,705.011047 674.370605,686.118103 
	C674.852661,681.250183 675.075134,676.355591 674.558838,670.896484 
	C671.076660,672.696716 668.063782,672.512085 665.084839,672.377014 
	C643.628723,671.403748 622.183472,670.007202 600.716980,669.499512 
	C580.562622,669.022827 560.464966,667.504211 540.320435,666.955200 
	C535.340759,666.819580 530.329407,666.450317 525.416382,665.664734 
	C520.684265,664.908020 519.513794,662.744324 521.020386,658.247803 
	C521.635925,656.410950 522.933472,654.773804 524.062500,653.143982 
	C526.300781,649.912964 529.066223,647.003113 530.308655,643.054382 
	C529.640808,642.703186 529.244629,642.374268 528.799011,642.280640 
	C526.494263,641.796509 523.853394,641.536133 523.836426,638.420959 
	C523.818909,635.207703 526.459534,634.242432 528.959900,633.957031 
	C535.567871,633.202881 542.071838,631.681519 548.783386,631.647034 
	C565.603027,631.560608 582.423218,630.644653 599.240295,631.697083 
	C619.497437,632.964783 639.709900,634.690552 659.838196,637.377136 
	C666.082886,638.210571 671.570374,639.881592 674.420288,646.379395 
	C673.572937,643.568726 674.509644,640.528503 671.470215,638.359680 
	C663.252747,632.496033 656.818909,624.803528 650.738647,616.843445 
	C635.705383,597.162292 623.781372,575.593201 612.563721,553.603455 
	C611.504517,551.527161 610.607544,549.588989 607.871399,548.921631 
	C590.195129,544.610168 572.250732,542.320190 554.110901,541.341370 
	C551.484680,541.199707 549.864319,542.002014 548.763733,544.665771 
	C544.239746,555.614685 538.690002,566.067200 532.515259,576.167114 
	C523.809937,590.406250 515.215942,605.150635 502.196228,615.607361 
	C493.020264,622.976990 492.135681,629.547180 495.964233,639.610046 
	C499.907501,649.974304 502.890686,660.787476 504.809906,671.792175 
	C505.910095,678.100464 502.769104,683.004578 496.760223,684.069458 
	C493.171570,684.705505 489.448334,684.797302 485.866821,683.670044 
	C466.985931,677.727966 450.226990,668.128967 435.675385,654.665588 
	C426.068237,645.776917 418.529297,635.228699 410.928314,623.603760 
	C411.381531,627.558350 413.794891,631.205017 410.227539,633.250183 
	C406.555298,635.355347 404.305511,631.652100 401.798096,629.677246 
	C401.146942,629.164368 400.566193,628.553406 399.996887,627.946411 
	C390.719574,618.055420 382.905945,607.077637 375.572998,594.844238 
M245.595673,788.821838 
	C244.729477,778.679871 244.616241,768.551575 245.527679,758.390015 
	C246.598709,746.449097 247.516861,734.575195 238.326202,724.609497 
	C235.856796,721.931824 233.276352,719.353394 230.800400,716.680237 
	C227.176193,712.767395 223.711563,708.751648 220.802643,704.239258 
	C205.782333,680.939392 199.365570,655.105713 197.531174,627.755188 
	C197.003311,619.884766 197.764771,612.061646 197.391327,604.201416 
	C193.233765,614.998352 189.238541,625.765991 187.158478,637.228027 
	C182.114044,628.665100 182.909714,619.218445 181.703323,609.643005 
	C175.940689,632.152588 170.488449,654.241699 164.617538,676.218933 
	C152.003815,723.437317 138.078308,770.372559 133.790222,819.365479 
	C132.295609,836.441895 130.842163,853.564941 131.554230,870.723755 
	C132.195282,886.172058 133.123993,901.623840 135.369888,916.950623 
	C135.971542,921.056519 136.598923,925.164734 137.417389,929.231018 
	C138.196594,933.102112 139.240784,936.919922 140.168472,940.761169 
	C141.562576,925.446106 143.955017,910.556213 148.365021,896.002686 
	C148.980576,893.971436 149.598587,891.967285 149.341309,889.669861 
	C147.819641,876.081726 147.071808,862.454834 148.828995,848.831299 
	C149.524033,843.442749 150.083603,837.937378 153.113434,832.749084 
	C154.555298,834.705994 154.025543,836.235229 153.912354,837.679382 
	C152.106766,860.713501 153.043472,883.577271 158.453934,906.114014 
	C162.307602,922.166077 167.807770,937.462036 180.622650,948.872253 
	C184.688965,952.492798 188.863297,956.143677 195.789352,956.072632 
	C194.961685,949.757141 194.404083,943.685364 194.673706,937.601135 
	C194.950958,931.344604 195.744629,925.183655 193.666870,918.899475 
	C191.827591,913.336792 190.269165,907.404541 192.570984,901.347534 
	C198.532425,924.067932 206.417999,945.681213 223.821335,962.368408 
	C241.154770,978.988586 261.658173,988.606812 286.102997,990.293396 
	C257.949707,926.079041 248.288940,858.626343 245.595673,788.821838 
M826.449097,443.030945 
	C823.378052,437.414673 820.592651,431.616547 816.763672,426.694641 
	C816.004211,426.911133 815.778931,426.904022 815.701233,427.007538 
	C803.720764,442.971710 792.922974,459.875244 778.442993,473.852814 
	C777.036133,475.210876 777.106201,476.747192 777.903503,478.426117 
	C787.754822,499.170441 796.260010,520.522400 807.240906,540.767517 
	C828.161438,579.338074 852.326660,615.872986 876.255920,652.567505 
	C877.115601,653.885803 877.745239,655.487732 879.563965,656.284912 
	C879.563965,653.309021 879.783264,650.495422 879.529785,647.725098 
	C877.197571,622.235046 874.924622,596.736694 869.639282,571.626587 
	C860.313232,527.319458 846.916382,484.381958 826.449097,443.030945 
M708.158630,382.333954 
	C726.175354,398.065094 741.660583,415.976868 754.071594,436.699585 
	C760.514587,433.410126 763.245178,428.190948 764.509216,422.192047 
	C767.348999,408.715179 765.136047,396.079529 757.588501,384.441833 
	C756.588867,382.900482 754.867676,381.541443 755.350098,378.904144 
	C758.779419,379.266876 761.473633,381.038361 764.430969,381.929779 
	C767.522034,382.861511 770.758789,385.054840 773.755554,382.046448 
	C776.760681,379.029663 775.294189,375.518951 774.172058,372.212128 
	C770.919983,362.628448 764.948059,354.851807 757.340698,348.429840 
	C751.628357,343.607605 745.578186,338.919617 737.171875,340.990662 
	C736.866760,341.065826 736.418945,340.561798 735.736633,340.142883 
	C738.613281,337.079315 742.252747,336.024628 745.759033,334.655426 
	C753.243103,331.732849 760.555664,328.416046 765.905396,322.121185 
	C770.153137,317.123047 769.551453,313.545685 764.147644,310.217102 
	C760.285645,307.838196 756.004578,306.469421 751.645081,305.311798 
	C729.947632,299.550262 709.031677,302.859375 688.666138,311.073120 
	C676.505188,315.977814 666.652466,324.503754 656.603760,331.945068 
	C656.724426,334.023712 657.632629,334.828888 658.451477,335.622925 
	C665.289124,342.253784 671.426331,349.475922 676.941345,357.239197 
	C677.601074,358.167725 678.429321,359.092590 679.388550,359.674377 
	C689.702332,365.930145 698.208679,374.474792 708.158630,382.333954 
M833.322449,689.385864 
	C833.997742,693.817993 834.771179,698.237854 835.329834,702.684631 
	C836.903992,715.216736 838.456421,727.752380 839.868835,740.303406 
	C840.278442,743.943237 841.684509,745.194885 845.406128,744.268250 
	C851.046692,742.863770 856.841858,742.074829 862.472839,740.638184 
	C876.539795,737.049316 890.337952,732.607117 903.044434,725.434387 
	C910.715210,721.104309 910.725098,720.808960 906.251221,713.369263 
	C898.783813,700.951721 891.415344,688.459900 883.498108,676.330383 
	C861.374329,642.436279 838.726074,608.878906 818.378174,573.859253 
	C814.117004,566.525574 810.089661,559.055969 805.954529,551.648987 
	C810.180725,567.991272 813.762878,584.378601 817.241577,600.772522 
	C823.414001,629.861633 828.869324,659.093506 833.322449,689.385864 
M450.666840,964.892944 
	C452.200226,967.864868 455.136688,969.287598 457.685822,971.080994 
	C461.954041,974.083801 465.637115,977.879578 465.931793,983.048279 
	C466.447174,992.087585 470.601807,995.688354 479.523529,995.325684 
	C482.338928,995.211243 483.795685,994.946655 484.727753,992.287109 
	C488.534424,981.424866 496.023590,974.789246 507.185638,971.564636 
	C527.961121,965.562683 548.613831,959.127686 569.259216,952.685730 
	C586.279602,947.374878 603.031494,941.322388 618.827515,932.926697 
	C620.929504,931.809509 624.093933,930.963196 623.487061,927.806458 
	C621.822266,919.146606 623.847107,910.589539 623.943604,901.903992 
	C621.396851,901.720337 619.759888,903.344055 617.878113,904.252625 
	C566.507935,929.057068 513.590454,948.022766 455.461456,947.237183 
	C452.005005,947.190491 451.131439,948.630981 451.344055,951.733398 
	C451.628784,955.887817 451.629395,960.057312 450.666840,964.892944 
M234.957260,387.255676 
	C237.600616,386.667358 239.737930,384.227905 243.373932,384.910553 
	C241.729599,393.648987 237.774750,402.199585 242.725494,411.482666 
	C265.001129,380.361908 287.636414,350.607727 322.180328,332.896912 
	C320.704407,330.440491 318.410980,329.584991 316.496002,328.424744 
	C306.190643,322.180725 296.975037,313.917908 284.419525,311.863495 
	C271.120239,309.687408 257.962799,308.651337 245.182434,314.149841 
	C237.344711,317.521942 236.013702,322.575378 240.918472,329.636963 
	C245.090164,335.643097 250.771164,339.944489 256.900970,343.753082 
	C258.302704,344.624023 260.273987,345.062469 260.611115,347.234436 
	C257.822662,348.872406 254.890564,346.327026 252.253265,348.312897 
	C240.974670,356.805603 232.744308,367.343506 229.794189,381.409882 
	C229.102676,384.707092 230.046036,387.467102 234.957260,387.255676 
M151.008392,699.622925 
	C161.959457,659.814880 172.626816,619.932678 182.415604,579.780273 
	C178.161697,586.368713 174.352676,593.158447 170.272156,599.780884 
	C153.138718,627.587646 134.179520,654.102112 113.433693,679.326111 
	C111.475609,681.706848 111.966690,683.157715 113.710915,685.280640 
	C120.248962,693.238281 128.326569,699.337463 136.917923,704.791687 
	C140.201096,706.875977 143.364639,709.348511 147.274155,710.403198 
	C149.746689,707.326965 149.479385,703.588074 151.008392,699.622925 
M890.669922,774.053589 
	C892.599609,773.548096 894.545105,773.095703 896.456299,772.527954 
	C905.393250,769.873169 914.344238,767.233826 922.081787,761.737976 
	C924.752991,759.840698 927.355286,757.497925 926.485474,753.967285 
	C923.839172,743.226624 917.611450,734.202576 912.521362,724.128601 
	C908.101624,727.894897 904.458008,731.031982 900.159973,733.271179 
	C883.305542,742.052429 865.392883,747.347534 846.525330,749.313477 
	C842.587097,749.723816 840.795349,751.062622 841.257324,755.201965 
	C842.030945,762.132996 843.001892,769.088196 843.049377,776.038940 
	C843.085083,781.264526 845.269775,782.174438 849.731689,781.631165 
	C863.270020,779.982849 876.715271,777.877747 890.669922,774.053589 
M672.177490,865.680237 
	C661.803284,875.861389 650.741760,885.320557 638.107727,892.456299 
	C631.325684,896.286926 630.550537,901.757935 630.160034,908.148254 
	C630.009277,910.615112 631.096985,911.962280 633.364441,912.398621 
	C643.541321,914.356934 648.828857,921.256470 652.201233,930.424316 
	C654.414551,936.441101 657.182800,942.253784 660.294861,949.545776 
	C674.217224,917.125793 681.615723,884.688049 685.904602,851.202026 
	C681.496277,855.861511 677.087891,860.520996 672.177490,865.680237 
M862.357178,841.965881 
	C868.603394,823.437805 873.676086,804.625549 876.934326,784.841064 
	C867.556580,786.014893 859.050110,787.634766 850.495056,787.954956 
	C844.802490,788.168091 843.905212,790.509033 844.316223,795.264404 
	C846.051086,815.339417 846.538757,835.462585 846.362915,855.607483 
	C846.289368,864.032227 846.350708,872.458191 846.350708,882.053955 
	C853.168030,868.720032 857.777161,855.775879 862.357178,841.965881 
M653.775757,609.733215 
	C659.555725,616.938171 664.960022,624.477600 671.971619,630.812561 
	C673.184509,629.075134 672.774109,627.525635 672.573975,626.156860 
	C669.911682,607.947327 667.330811,589.726318 663.028442,571.795471 
	C662.234375,568.486328 660.627686,566.512451 657.652405,565.269104 
	C651.675781,562.771667 645.837952,559.890991 639.737793,557.753906 
	C633.310120,555.502014 626.899536,552.931885 619.268311,551.931335 
	C629.644592,572.295410 640.442566,591.348083 653.775757,609.733215 
M116.919876,696.582275 
	C113.938095,693.338440 110.956322,690.094666 107.692703,686.544250 
	C103.777565,691.423767 100.157494,695.756165 96.737053,700.240784 
	C91.655220,706.903564 91.631279,710.885010 97.208733,717.111877 
	C106.557571,727.549377 117.992325,735.206909 130.701050,740.971008 
	C133.354431,742.174500 135.894180,743.905212 139.452179,743.989258 
	C141.807388,734.601501 144.133713,725.328857 146.513321,715.843750 
	C135.272781,711.401672 125.662148,705.276978 116.919876,696.582275 
M260.387665,623.857239 
	C260.011871,633.925903 257.827667,643.891846 258.476135,654.794128 
	C278.286499,626.834778 291.917450,596.450317 306.402985,565.627258 
	C292.481995,570.229492 281.018494,577.669128 269.081299,584.147156 
	C267.179871,585.178955 266.616608,586.962341 266.176636,589.065063 
	C263.827698,600.291077 262.194977,611.630371 260.387665,623.857239 
M565.515320,493.843933 
	C563.750244,503.860779 560.524475,513.468445 557.338989,523.088745 
	C555.687073,528.077637 556.014160,528.652161 561.160400,528.639893 
	C568.184937,528.623047 575.076843,529.650452 581.902893,531.096191 
	C588.972229,532.593384 595.981384,534.375183 603.667542,536.185730 
	C592.000061,511.297760 580.077515,487.191406 570.600830,460.769104 
	C569.270020,472.446747 568.086853,482.825775 565.515320,493.843933 
M395.996582,614.520142 
	C399.089325,618.376587 401.681366,622.661865 406.057159,626.356506 
	C404.201599,618.331909 403.131226,610.722717 400.658051,603.600647 
	C394.706360,586.461609 389.102386,569.273254 386.863892,551.191650 
	C386.443909,547.799072 384.771820,547.066895 381.818176,547.479553 
	C377.213287,548.122925 372.601257,548.724731 367.981415,549.248657 
	C361.995056,549.927734 361.585175,550.429749 363.743896,555.948914 
	C371.842560,576.655029 382.152527,596.156860 395.996582,614.520142 
M322.302185,548.045227 
	C330.936646,545.165588 339.187225,541.152588 348.196228,539.364868 
	C350.093109,538.988464 350.967499,537.647644 350.408356,535.629761 
	C346.824188,522.694885 344.438354,509.509705 342.511108,495.778656 
	C340.862946,500.398865 339.551605,504.516449 337.939545,508.512726 
	C332.666321,521.584961 327.283691,534.613037 322.302185,548.045227 
M340.790497,1002.279419 
	C342.837433,1001.790527 345.088593,1002.232239 347.477539,1000.721741 
	C339.905334,990.211853 331.567688,980.324524 326.114716,968.532959 
	C327.054474,972.380310 328.043579,976.195374 329.506500,979.819214 
	C332.593842,987.466736 335.134796,995.392883 340.790497,1002.279419 
M742.760376,979.503296 
	C743.231445,977.819824 744.604187,976.390747 744.208008,973.731262 
	C738.714478,979.578979 732.595093,983.961609 726.408325,989.361389 
	C730.470703,990.529175 733.744995,991.470398 737.258667,992.480469 
	C739.130737,988.101990 740.821472,984.147827 742.760376,979.503296 
z"/>
<path fill="currentColor" opacity="1.000000" stroke="none" 
	d="
M399.087585,672.327271 
	C371.802856,676.025269 344.954590,679.717834 318.098145,683.350281 
	C302.609863,685.445129 287.089050,687.309998 271.625366,689.569397 
	C267.276428,690.204895 264.669952,688.633728 262.495789,685.211060 
	C257.866730,677.923706 258.059662,668.403259 262.894348,661.126587 
	C264.240875,659.100037 266.214691,658.435669 268.211334,657.699280 
	C279.530548,653.524963 291.484650,652.194580 303.259552,650.175537 
	C331.818176,645.278625 360.570648,642.150452 389.576263,641.713318 
	C392.581055,641.668030 395.543396,641.920898 398.517914,642.462769 
	C401.272095,642.964294 404.085144,643.395447 404.444366,646.707825 
	C404.827332,650.238525 401.253937,649.777832 398.765533,651.216797 
	C401.117218,654.197937 403.252930,657.113892 405.603699,659.844788 
	C411.737946,666.970825 410.705750,670.144958 401.503510,672.059448 
	C400.854187,672.194519 400.182098,672.220154 399.087585,672.327271 
z"/>
<path fill="currentColor" opacity="1.000000" stroke="none" 
	d="
M552.279053,832.937805 
	C548.161865,851.962769 535.828003,863.242615 518.628357,869.048035 
	C494.961914,877.036255 470.653839,877.748657 446.320312,872.080627 
	C435.265472,869.505676 426.225403,863.771423 420.067352,853.715332 
	C409.992188,837.262756 407.243195,820.006897 413.736450,801.715759 
	C417.635590,790.732361 424.740723,786.827148 436.285980,788.244385 
	C450.406769,789.977783 464.194061,787.383911 477.739502,784.046021 
	C496.895874,779.325439 514.933289,780.667175 531.921936,791.287231 
	C544.122681,798.914246 551.454407,809.527161 552.807007,824.072388 
	C553.075500,826.959656 552.434265,829.700256 552.279053,832.937805 
M513.025513,787.463867 
	C506.066589,785.482361 498.977997,784.363037 491.814514,785.785522 
	C472.716187,789.578003 453.676331,793.557129 433.994110,792.458679 
	C427.598419,792.101746 423.151703,795.381775 420.107574,801.134888 
	C414.128540,812.434814 414.269989,824.145447 417.131439,836.092834 
	C420.430023,849.865295 427.215759,860.801636 441.084900,866.474060 
	C459.068756,873.829529 477.508820,874.731384 496.313782,871.206848 
	C509.991730,868.643188 523.124817,864.677002 534.181213,855.527588 
	C552.768188,840.146484 553.584595,816.165955 535.962830,799.842163 
	C529.568665,793.919067 521.897278,790.445984 513.025513,787.463867 
z"/>
<path fill="currentColor" opacity="1.000000" stroke="none" 
	d="
M546.921997,610.676819 
	C567.239258,608.205078 586.903015,610.758301 606.552612,613.229248 
	C617.945618,614.661865 629.221008,616.843201 640.317810,619.820984 
	C642.280029,620.347534 644.687866,620.228638 646.539307,623.090637 
	C639.641785,621.998352 633.387756,621.034546 627.143005,620.014099 
	C605.613892,616.495972 583.996216,613.994324 562.138184,613.932556 
	C558.493530,613.922302 555.351196,614.785034 552.244812,616.690369 
	C547.384460,619.671448 542.308777,622.301270 536.988953,624.554626 
	C539.223511,619.957336 543.746216,618.041870 548.218384,614.313110 
	C543.955322,614.313110 540.639038,614.313110 537.322754,614.313110 
	C539.797974,610.836243 543.221436,611.024170 546.921997,610.676819 
z"/>
<path fill="currentColor" opacity="1.000000" stroke="none" 
	d="
M349.816803,623.649048 
	C361.995575,621.983887 373.728333,620.559265 386.482086,623.002869 
	C383.434906,625.117737 380.956207,623.945862 378.324860,624.789612 
	C382.607086,627.291138 387.524536,628.094299 390.740845,632.114014 
	C388.085876,633.340820 386.143890,631.951233 384.361298,631.102966 
	C372.561890,625.488037 360.424438,625.609863 347.828918,627.769775 
	C327.674866,631.225952 307.625427,635.016357 288.032318,640.962219 
	C286.813019,641.332214 285.507385,641.808960 283.040405,640.568115 
	C304.940552,631.580811 326.991943,627.014832 349.816803,623.649048 
z"/>
<path fill="currentColor" opacity="1.000000" stroke="none" 
	d="
M429.940735,704.118408 
	C433.973175,707.561279 432.158661,711.124573 430.052856,713.990540 
	C428.147308,716.583984 425.894531,715.217102 424.699249,712.687012 
	C423.139771,709.386108 425.315979,705.625427 429.940735,704.118408 
z"/>
</svg>