<?xml version="1.0" standalone="no"?>
<!DOCTYPE svg PUBLIC "-//W3C//DTD SVG 20010904//EN"
 "http://www.w3.org/TR/2001/REC-SVG-20010904/DTD/svg10.dtd">
<svg version="1.0" xmlns="http://www.w3.org/2000/svg"
 width="4084.000000pt" height="4084.000000pt" viewBox="0 0 4084.000000 4084.000000"
 preserveAspectRatio="xMidYMid meet">
<metadata>
Created by potrace 1.14, written by Peter Selinger 2001-2017
</metadata>
<g transform="translate(0.000000,4084.000000) scale(0.100000,-0.100000)"
fill="currentColor" stroke="none">
<path d="M12197 31994 c-1 -1 -72 -5 -157 -8 -160 -8 -203 -10 -330 -21 -41
-4 -93 -8 -115 -10 -69 -6 -169 -16 -195 -20 -14 -2 -43 -6 -65 -9 -88 -11
-131 -17 -155 -21 -14 -2 -45 -7 -70 -10 -25 -3 -106 -17 -180 -31 -74 -13
-148 -26 -165 -29 -16 -3 -43 -8 -60 -12 -35 -8 -29 -7 -80 -17 -232 -45 -622
-153 -910 -252 -270 -93 -321 -111 -350 -124 -11 -5 -60 -25 -110 -45 -49 -20
-114 -47 -143 -61 -29 -13 -54 -24 -57 -24 -18 0 -399 -187 -571 -281 -325
-176 -747 -451 -994 -646 -330 -261 -462 -376 -746 -658 -403 -400 -744 -818
-1083 -1329 -101 -152 -253 -399 -316 -512 l-28 -51 -156 -43 c-154 -43 -467
-141 -506 -159 -11 -5 -64 -26 -117 -45 -250 -91 -725 -311 -870 -402 -21 -13
-40 -24 -42 -24 -7 0 -245 -142 -283 -168 -15 -11 -77 -52 -138 -93 -447 -297
-875 -671 -1236 -1079 -111 -126 -133 -152 -208 -245 -40 -49 -78 -97 -85
-106 -50 -61 -300 -412 -316 -444 -3 -5 -26 -42 -51 -80 -348 -532 -669 -1220
-877 -1880 -87 -275 -173 -598 -217 -810 -2 -11 -13 -65 -25 -120 -23 -110
-87 -480 -95 -548 -3 -23 -7 -58 -10 -77 -2 -19 -7 -53 -9 -75 -3 -22 -10 -76
-15 -120 -6 -44 -13 -111 -16 -150 -3 -38 -7 -92 -10 -120 -35 -374 -40 -1161
-10 -1458 2 -23 7 -82 10 -132 3 -49 8 -97 10 -105 2 -8 6 -52 10 -97 3 -46 8
-91 9 -100 2 -10 7 -49 12 -88 4 -38 8 -72 9 -75 0 -3 4 -32 9 -65 15 -121 60
-381 100 -580 59 -292 149 -632 248 -935 228 -700 550 -1368 932 -1935 87
-128 268 -379 285 -395 4 -3 44 -52 90 -110 47 -58 87 -107 90 -110 4 -3 35
-39 70 -80 63 -74 398 -411 496 -500 416 -377 1008 -758 1485 -955 36 -14 79
-32 95 -39 17 -8 64 -26 105 -41 41 -15 89 -33 105 -40 82 -35 486 -153 614
-180 104 -22 326 -64 361 -69 25 -3 54 -8 65 -10 11 -2 49 -7 85 -11 36 -4 72
-9 80 -10 8 -2 51 -6 95 -10 44 -4 88 -9 97 -11 89 -16 665 -23 863 -10 168
10 260 18 268 23 4 2 27 -38 52 -89 285 -596 706 -1000 1275 -1225 93 -37 272
-96 326 -108 10 -2 64 -13 119 -25 100 -22 177 -35 270 -46 28 -3 61 -8 75
-10 141 -24 763 -24 1010 1 19 2 78 6 130 10 52 4 112 8 134 10 35 4 38 2 32
-18 -53 -181 -106 -421 -121 -547 -3 -25 -7 -56 -10 -69 -7 -35 -18 -227 -18
-306 1 -541 207 -1017 563 -1298 36 -28 67 -54 70 -58 12 -15 173 -106 246
-140 147 -68 319 -116 479 -135 167 -18 415 -9 575 22 14 2 39 7 55 10 84 14
309 83 410 124 191 79 328 152 485 257 138 92 136 90 250 182 324 261 606 598
844 1011 29 50 136 265 246 495 317 664 795 1210 1430 1630 414 275 834 469
1345 624 88 27 313 84 377 96 13 3 34 7 48 10 14 3 36 7 50 10 14 3 38 7 53
11 16 3 38 7 50 9 19 2 84 13 177 29 14 3 61 10 105 16 44 6 91 13 105 15 14
2 50 6 80 10 30 3 71 8 90 10 37 5 101 11 190 20 30 3 78 7 105 10 128 12 453
31 705 41 91 4 739 8 1440 10 701 1 1304 5 1340 8 36 2 124 7 195 10 72 3 150
8 175 10 25 3 86 8 135 11 50 4 104 8 120 10 17 2 59 6 95 10 36 3 76 8 90 10
14 2 48 7 75 10 56 6 296 42 335 50 14 3 36 7 50 10 171 32 285 58 450 105
628 180 1099 447 1502 853 118 119 171 185 208 257 24 47 62 150 55 150 -3 0
0 12 6 26 15 40 12 192 -5 265 -31 132 -95 240 -199 335 -207 189 -519 219
-763 73 -31 -19 -115 -93 -188 -165 -196 -195 -364 -312 -599 -417 -142 -63
-366 -138 -519 -173 -10 -2 -26 -6 -35 -8 -59 -14 -112 -26 -138 -30 -16 -3
-70 -12 -120 -20 -104 -18 -131 -22 -240 -35 -163 -20 -175 -21 -355 -35 -75
-6 -230 -15 -380 -23 -69 -3 -692 -7 -1385 -9 -693 -1 -1305 -5 -1360 -7 -55
-3 -176 -8 -270 -12 -93 -4 -186 -8 -205 -10 -19 -2 -82 -6 -140 -10 -58 -3
-121 -8 -140 -10 -19 -2 -66 -7 -105 -10 -127 -11 -259 -24 -295 -30 -14 -2
-50 -7 -80 -10 -30 -3 -66 -8 -80 -10 -14 -2 -45 -6 -70 -10 -54 -7 -117 -16
-145 -21 -10 -2 -37 -6 -60 -9 -906 -129 -1866 -496 -2615 -999 -74 -50 -142
-96 -150 -103 -8 -6 -60 -45 -115 -86 -370 -277 -759 -664 -1035 -1032 -241
-321 -457 -684 -609 -1025 -191 -427 -406 -723 -696 -959 -370 -301 -828 -408
-951 -222 -49 75 -63 147 -60 309 5 212 40 372 160 721 74 216 91 307 91 506
0 146 -4 182 -23 255 -111 410 -419 652 -897 706 -151 17 -544 7 -820 -21
-285 -29 -801 -26 -970 6 -27 5 -61 12 -75 14 -59 11 -75 16 -163 45 -164 56
-291 134 -413 255 -161 159 -304 435 -370 713 -37 158 -81 240 -183 342 -94
94 -181 144 -301 175 -81 21 -223 22 -310 2 -36 -8 -90 -18 -120 -22 -30 -3
-62 -8 -70 -10 -15 -4 -63 -10 -160 -20 -365 -38 -749 -38 -1090 0 -48 5 -229
33 -330 50 -63 11 -214 45 -248 56 -18 6 -39 12 -45 13 -66 14 -321 96 -427
138 -335 132 -640 301 -963 534 -185 134 -495 419 -677 623 -271 303 -522 664
-742 1066 -54 100 -198 389 -198 399 0 3 -13 33 -29 68 -151 327 -310 800
-410 1220 -42 178 -55 236 -81 378 -6 30 -12 66 -15 80 -3 14 -12 68 -20 120
-8 52 -17 106 -19 120 -29 173 -56 400 -71 590 -4 47 -8 100 -10 118 -25 211
-25 1036 0 1202 2 14 6 65 10 113 3 48 8 97 10 108 2 11 7 48 10 82 3 34 7 73
9 87 3 14 10 61 16 105 15 107 19 135 25 165 3 14 7 41 10 60 5 28 31 158 60
304 44 213 145 558 253 866 32 91 141 357 185 449 22 47 41 88 41 91 3 11 126
250 178 345 122 221 266 448 413 650 76 104 219 290 235 305 3 3 20 23 39 45
170 200 461 494 636 644 61 51 121 103 135 115 115 99 505 374 655 462 27 16
57 34 67 39 135 80 423 229 528 273 78 33 89 38 145 62 208 89 658 235 817
265 22 4 37 8 98 21 14 3 34 6 45 8 11 2 30 6 42 10 12 4 32 9 45 11 13 3 34
7 48 10 14 3 36 7 50 10 64 12 76 17 85 38 28 59 166 316 270 502 175 315 495
783 725 1059 23 27 138 163 170 200 97 114 399 422 506 516 161 143 197 174
274 237 543 441 1144 787 1785 1028 55 20 116 44 135 52 20 8 42 15 50 16 8 2
20 5 25 8 6 4 57 21 115 38 58 18 124 39 147 47 23 7 52 16 65 19 13 2 100 25
195 49 158 41 368 87 459 102 20 3 46 8 58 10 23 5 50 9 116 19 25 4 52 9 61
10 9 2 40 6 69 10 29 4 60 8 69 10 9 1 50 6 91 10 41 4 83 9 93 11 9 1 52 6
95 9 42 4 93 8 112 10 246 25 890 25 1160 0 54 -5 144 -13 220 -21 30 -2 71
-7 90 -10 19 -3 58 -7 85 -10 28 -2 61 -7 75 -9 14 -2 45 -7 70 -10 25 -4 83
-13 130 -21 47 -8 99 -17 115 -20 156 -25 626 -135 755 -177 71 -23 164 -51
175 -53 18 -3 379 -136 420 -154 22 -10 90 -40 150 -66 241 -104 523 -264 688
-388 51 -38 94 -72 97 -76 20 -25 175 -143 220 -165 87 -45 211 -72 311 -69
145 4 234 36 409 147 335 214 750 419 1128 557 206 75 505 166 612 186 14 3
39 9 55 14 24 7 161 35 310 64 11 2 56 9 100 16 44 6 91 13 105 15 14 2 50 6
80 10 30 3 71 8 90 10 346 40 780 36 1150 -11 105 -13 194 -27 245 -37 11 -3
40 -8 65 -12 25 -4 90 -18 145 -31 55 -14 111 -27 125 -30 133 -27 471 -145
685 -239 67 -29 311 -151 365 -182 523 -302 983 -702 1345 -1169 17 -21 75
-95 129 -164 54 -69 100 -126 101 -128 3 -3 62 7 145 23 14 3 75 14 135 25 61
11 121 22 135 25 14 3 48 8 75 11 28 3 56 7 63 9 24 8 228 19 347 19 108 -1
258 -9 325 -19 14 -2 48 -6 75 -10 28 -3 84 -12 125 -20 41 -8 86 -17 100 -19
326 -62 820 -253 1155 -446 22 -12 60 -34 85 -48 152 -85 534 -354 636 -447 6
-5 36 -30 65 -55 101 -84 144 -125 289 -270 175 -176 211 -215 321 -350 205
-255 340 -463 455 -704 51 -108 120 -285 130 -330 2 -10 10 -42 18 -71 9 -28
18 -69 22 -91 12 -76 58 -187 107 -259 12 -16 46 -54 75 -83 251 -251 659
-250 908 2 167 169 224 393 164 644 -12 48 -23 95 -25 105 -10 46 -60 203 -97
302 -182 492 -495 993 -930 1488 -149 169 -456 467 -647 627 -30 25 -59 50
-65 55 -6 6 -42 35 -81 65 -405 321 -872 606 -1310 799 -197 88 -551 217 -672
246 -10 3 -79 20 -153 40 -123 32 -343 77 -438 90 -20 3 -53 7 -72 10 -86 11
-195 23 -315 32 -107 8 -416 8 -533 0 l-82 -6 -38 42 c-64 72 -354 359 -431
427 -41 36 -79 70 -85 75 -30 30 -243 198 -340 270 -113 83 -360 248 -451 300
-27 16 -63 37 -80 47 -358 208 -791 396 -1200 521 -136 42 -426 117 -501 130
-16 3 -74 14 -129 25 -55 11 -120 23 -145 27 -25 3 -56 8 -70 10 -41 8 -82 13
-140 20 -30 3 -66 8 -80 10 -148 21 -453 38 -695 38 -209 0 -507 -14 -605 -28
-19 -3 -60 -7 -90 -11 -53 -5 -82 -8 -172 -19 -24 -3 -68 -10 -98 -15 -30 -5
-73 -12 -95 -15 -33 -5 -149 -27 -305 -59 -154 -31 -466 -116 -660 -180 -180
-59 -279 -94 -315 -110 -16 -8 -41 -17 -55 -21 -14 -4 -43 -16 -65 -26 -22
-10 -62 -27 -90 -37 -48 -19 -92 -38 -240 -105 -84 -38 -416 -206 -465 -235
-19 -11 -52 -30 -72 -41 l-37 -20 -88 58 c-576 380 -1470 725 -2303 890 -58
12 -125 26 -150 31 -25 5 -61 12 -80 14 -19 3 -45 8 -56 10 -22 5 -68 12 -131
22 -21 3 -49 7 -63 9 -54 9 -177 26 -220 31 -25 2 -58 6 -75 9 -44 6 -226 24
-300 30 -22 2 -83 6 -135 9 -52 3 -138 9 -190 12 -82 6 -668 12 -673 8z"/>
<path d="M10927 24443 c-1 0 -26 -4 -55 -7 -141 -16 -273 -131 -316 -276 -15
-49 -16 -393 -13 -3664 1 -1986 5 -3622 9 -3635 41 -139 167 -255 305 -280 54
-10 472 -7 517 3 89 21 194 99 240 179 60 103 56 -57 56 2374 0 1375 4 2223 9
2223 6 0 37 -84 71 -187 34 -104 99 -303 145 -443 46 -140 145 -444 220 -675
75 -231 140 -429 144 -440 5 -11 18 -49 29 -85 22 -70 114 -354 267 -820 53
-162 98 -299 100 -305 1 -5 5 -17 8 -25 3 -8 17 -51 32 -96 14 -45 38 -101 54
-125 105 -166 318 -228 495 -144 71 34 136 92 169 153 15 27 69 177 121 333
51 156 216 655 366 1109 150 454 297 899 327 990 30 91 56 172 58 180 2 8 4
15 4 15 1 0 43 126 94 279 51 154 97 281 102 283 7 2 10 -805 10 -2199 0
-1212 3 -2228 8 -2258 23 -155 146 -283 304 -318 24 -6 147 -9 275 -8 207 2
239 5 283 22 116 47 194 123 236 231 l22 58 2 3600 c1 2819 -2 3612 -11 3655
-32 143 -137 250 -284 290 -62 17 -557 17 -620 0 -67 -18 -117 -47 -170 -96
-44 -41 -97 -122 -105 -161 -2 -10 -29 -90 -60 -178 -31 -88 -70 -200 -87
-250 -49 -149 -139 -409 -148 -430 -5 -11 -20 -54 -33 -95 -14 -41 -48 -140
-75 -220 -84 -243 -238 -689 -347 -1005 -57 -165 -144 -417 -193 -560 -49
-143 -102 -296 -117 -340 -15 -44 -30 -89 -35 -100 -9 -21 -121 -348 -199
-577 -25 -76 -51 -138 -57 -138 -6 0 -61 143 -122 318 -61 174 -149 430 -197
567 -48 138 -121 347 -162 465 -41 118 -94 271 -118 340 -24 69 -80 231 -125
360 -45 129 -86 246 -90 260 -5 14 -38 111 -75 215 -36 105 -108 312 -160 460
-51 149 -126 362 -165 475 -39 113 -91 264 -116 335 -55 160 -93 225 -164 282
-93 74 -148 85 -426 87 -130 0 -236 0 -237 -1z"/>
<path d="M23271 24435 c-155 -29 -278 -143 -312 -292 -7 -33 -11 -414 -11
-1260 0 -909 -3 -1213 -11 -1212 -7 0 -34 32 -62 70 -170 237 -465 430 -732
478 -125 23 -336 31 -439 17 -21 -3 -64 -8 -94 -12 -67 -7 -204 -46 -268 -76
-26 -12 -78 -43 -117 -69 -183 -124 -297 -255 -385 -441 -63 -135 -96 -277
-115 -488 -26 -307 -27 -3234 -1 -3445 2 -16 7 -59 10 -95 10 -95 51 -293 81
-385 118 -362 369 -601 715 -679 129 -30 179 -35 340 -37 269 -3 480 53 670
179 78 51 238 201 358 335 23 26 44 47 47 47 3 0 5 -33 5 -72 0 -87 3 -110 20
-163 27 -82 94 -163 172 -209 82 -47 140 -55 391 -53 201 2 239 5 284 22 108
39 205 138 240 244 17 54 18 189 19 3666 1 3508 0 3612 -18 3665 -43 127 -129
213 -257 255 -43 14 -92 18 -262 19 -116 0 -236 -4 -268 -9z m-739 -3340 c66
-17 149 -59 205 -104 73 -57 170 -210 187 -292 3 -13 9 -45 14 -72 6 -27 10
-530 10 -1210 0 -1253 0 -1257 -53 -1401 -87 -238 -271 -376 -505 -377 -218
-1 -363 83 -452 263 -51 102 -76 189 -94 318 -4 30 -7 577 -7 1215 l0 1160 27
100 c70 269 193 389 421 412 33 3 61 6 63 8 8 7 131 -7 184 -20z"/>
<path d="M25391 24434 c-88 -15 -143 -44 -211 -113 -43 -43 -62 -73 -82 -126
l-27 -70 0 -3611 -1 -3611 21 -64 c31 -95 102 -178 187 -220 86 -42 130 -48
370 -44 125 1 234 5 242 7 156 43 258 143 297 288 6 21 10 902 11 2255 0 1221
1 2224 1 2229 2 21 25 -15 41 -66 10 -29 84 -255 165 -503 81 -247 159 -488
175 -535 15 -47 90 -274 165 -505 75 -231 149 -458 165 -505 15 -47 87 -267
160 -490 199 -612 184 -571 246 -642 54 -62 130 -105 215 -124 37 -8 141 -5
174 5 99 28 192 99 238 181 14 25 139 389 277 810 139 421 304 920 367 1110
63 190 115 350 117 355 2 6 6 17 9 25 3 8 70 211 149 450 81 245 147 433 153
430 7 -3 10 -763 11 -2235 l1 -2230 21 -54 c11 -29 33 -71 48 -93 27 -38 124
-127 124 -113 0 4 6 2 14 -4 7 -6 38 -20 68 -30 47 -16 85 -19 272 -18 120 0
239 4 264 8 137 26 249 126 297 265 16 46 17 297 17 3664 0 3296 -2 3619 -17
3660 -23 64 -58 121 -102 164 -44 43 -141 93 -198 102 -52 9 -518 9 -570 0
-60 -10 -155 -60 -204 -108 -67 -66 -73 -80 -236 -558 -34 -102 -79 -232 -100
-290 -20 -58 -63 -184 -97 -280 -33 -96 -86 -251 -118 -345 -32 -93 -100 -289
-150 -435 -51 -146 -98 -283 -105 -305 -8 -22 -52 -152 -100 -290 -77 -222
-184 -532 -350 -1015 -145 -420 -185 -533 -190 -538 -7 -7 -29 48 -86 213 -26
77 -77 223 -112 325 -36 102 -75 214 -87 250 -12 36 -25 74 -29 85 -9 22 -14
37 -75 215 -24 69 -46 132 -50 140 -6 16 -138 399 -160 465 -8 22 -45 130 -84
240 -38 110 -113 326 -167 480 -53 154 -99 287 -102 295 -4 8 -7 18 -8 23 -2
4 -4 9 -5 12 -1 3 -3 8 -4 13 -1 4 -7 21 -13 37 -7 17 -91 260 -188 540 -221
638 -211 612 -242 660 -23 37 -88 105 -99 105 -2 0 -21 11 -42 23 -20 13 -61
30 -91 37 -70 16 -488 19 -580 4z"/>
<path d="M40042 24439 c-108 -14 -228 -96 -282 -194 -54 -98 -52 -43 -52
-1357 0 -670 -4 -1218 -9 -1218 -4 0 -29 28 -55 63 -187 245 -415 403 -680
472 -262 68 -658 42 -859 -57 -357 -175 -574 -505 -611 -926 -3 -37 -7 -80 -9
-97 -18 -147 -28 -2918 -12 -3235 15 -303 49 -509 113 -695 90 -260 256 -456
480 -569 114 -57 255 -96 399 -111 70 -7 300 -8 332 -1 12 3 46 7 76 10 59 7
184 39 235 62 17 8 49 21 70 30 51 23 166 98 225 148 47 39 86 78 239 240 l65
69 1 -87 c1 -57 9 -107 23 -149 41 -123 150 -223 275 -252 71 -16 458 -17 529
0 142 32 252 141 290 285 9 34 12 882 12 3640 0 3861 3 3632 -47 3730 -24 46
-85 110 -136 142 -83 53 -122 60 -349 61 -116 1 -234 -1 -263 -4z m-716 -3354
c68 -23 97 -39 172 -94 47 -36 118 -131 152 -203 59 -127 57 -93 55 -1408 l-1
-1205 -22 -80 c-22 -81 -75 -199 -99 -223 -7 -7 -13 -17 -13 -21 0 -20 -121
-124 -179 -154 -84 -44 -156 -61 -251 -59 -72 2 -87 4 -155 18 -46 10 -136 59
-176 96 -106 97 -180 267 -205 473 -10 76 -10 2279 -1 2358 15 127 62 261 125
356 61 92 179 154 317 168 33 3 61 7 63 8 11 10 160 -11 218 -30z"/>
<path d="M18087 22244 c-1 -1 -36 -5 -77 -8 -41 -4 -106 -11 -145 -17 -60 -8
-96 -16 -205 -43 -9 -2 -49 -15 -90 -29 -216 -73 -407 -193 -580 -367 -268
-268 -405 -571 -445 -990 -4 -36 -8 -76 -11 -90 -24 -150 -24 -2451 0 -2655 2
-16 7 -57 11 -90 8 -75 15 -126 20 -145 2 -8 7 -35 10 -60 8 -56 49 -203 76
-273 117 -300 350 -570 649 -750 119 -72 303 -144 439 -172 157 -33 281 -46
461 -47 182 -1 352 21 510 67 30 9 62 18 70 20 30 8 146 58 224 97 234 117
453 311 608 539 65 97 140 250 178 369 42 128 51 193 39 271 -25 156 -150 286
-307 320 -31 6 -153 9 -314 7 l-264 -3 -66 -33 c-70 -34 -139 -101 -170 -163
-9 -19 -33 -68 -53 -109 -47 -95 -75 -132 -130 -170 -85 -58 -176 -81 -329
-82 -254 0 -442 120 -514 328 -11 33 -24 85 -27 115 -10 79 -7 539 4 574 34
116 111 207 219 258 l67 32 797 2 c710 1 803 3 855 18 109 31 194 105 247 215
l31 65 1 695 c2 722 -2 822 -37 980 -5 25 -11 55 -14 67 -9 51 -49 183 -76
251 -149 376 -397 651 -744 824 -142 71 -332 134 -460 153 -23 3 -52 7 -65 10
-54 11 -384 26 -393 19z m253 -1145 c170 -34 313 -165 370 -339 30 -93 39
-189 37 -410 l-2 -225 -34 -68 c-47 -93 -126 -165 -218 -197 -63 -22 -83 -24
-273 -25 -113 0 -227 3 -255 8 -141 25 -256 131 -305 280 -13 40 -17 418 -5
487 18 111 31 153 66 225 42 87 61 111 130 167 119 98 302 134 489 97z"/>
<path d="M31555 22235 c-290 -44 -530 -208 -669 -458 -40 -71 -91 -218 -102
-292 -10 -65 -11 -227 -2 -290 42 -285 245 -559 504 -680 l42 -20 0 -1557 c0
-1151 -3 -1558 -12 -1559 -6 0 -43 -1 -81 -2 -131 -4 -205 -75 -209 -200 l-3
-62 -174 -5 c-136 -4 -181 -9 -204 -22 -40 -22 -71 -56 -88 -98 -18 -43 -22
-223 -7 -279 13 -49 74 -113 122 -127 46 -15 1958 -17 2011 -3 47 12 99 58
122 106 24 49 25 251 2 305 -20 48 -71 95 -116 108 -20 5 -107 10 -193 10
l-158 0 0 58 c0 75 -31 137 -88 176 -38 27 -50 30 -127 30 -68 1 -85 4 -86 16
-3 58 -1 3101 2 3104 2 2 28 16 58 31 298 149 494 472 492 810 -1 103 -2 117
-26 223 -101 437 -560 745 -1010 677z m77 -185 c48 -29 79 -79 79 -131 2 -88
-39 -135 -146 -169 -60 -19 -118 -54 -171 -105 -32 -31 -87 -126 -102 -177
-38 -133 -151 -182 -254 -111 -55 37 -75 96 -58 171 14 66 64 178 107 240 143
208 424 354 545 282z"/>
<path d="M35327 22244 c-1 -1 -32 -4 -69 -8 -138 -13 -280 -52 -390 -108 -129
-65 -313 -223 -419 -359 -35 -46 -76 -96 -91 -113 l-27 -31 -1 105 c-1 58 -3
112 -5 120 -28 140 -120 253 -245 302 -50 19 -76 22 -292 24 -131 1 -256 -2
-279 -7 -145 -33 -262 -147 -295 -288 -11 -46 -14 -503 -14 -2517 0 -2445 0
-2462 20 -2520 48 -139 159 -238 297 -263 60 -12 456 -10 508 1 117 26 207
100 267 218 l33 65 3 685 c1 377 4 1212 5 1855 4 1213 3 1166 40 1320 31 125
95 234 174 294 104 80 312 116 473 83 213 -45 349 -194 402 -441 20 -95 20
-124 22 -1941 3 -2012 -2 -1866 61 -1966 57 -90 133 -142 242 -169 73 -18 461
-17 533 2 134 34 236 134 275 268 16 53 17 223 17 2094 -1 1844 -3 2173 -17
2221 -2 8 -6 33 -9 55 -5 31 -23 125 -31 155 -73 284 -265 559 -490 701 -67
42 -202 100 -265 114 -8 2 -37 9 -65 15 -80 19 -87 20 -155 26 -57 6 -209 11
-213 8z"/>
</g>
</svg>
