<svg version="1.1" id="Layer_1" xmlns="http://www.w3.org/2000/svg" xmlns:xlink="http://www.w3.org/1999/xlink" x="0px" y="0px"
	 width="100%" viewBox="0 0 1149 786"  xml:space="preserve">

<path fill="currentColor" opacity="1.000000" stroke="none"
	d="
M646.494507,461.678040 
	C591.508118,454.435181 543.343567,418.598846 536.572632,354.115845 
	C533.000854,320.099731 532.062744,285.811584 539.303284,252.112183 
	C550.737549,198.894165 585.228149,168.367264 637.320068,156.984634 
	C650.536987,154.096588 664.377014,152.974838 677.938049,152.921844 
	C767.590637,152.571472 857.245178,152.734055 946.899109,152.729584 
	C947.729065,152.729538 948.559021,152.729584 949.750183,152.729584 
	C949.750183,193.439117 949.750183,234.006027 949.750183,275.297516 
	C947.925842,275.297516 946.017334,275.297485 944.108765,275.297516 
	C883.617371,275.297760 823.125610,275.213806 762.634949,275.419434 
	C756.085938,275.441681 749.197876,276.134827 743.057678,278.239777 
	C719.228577,286.408813 718.235779,322.432220 735.112549,336.248322 
	C747.983826,346.785339 763.143921,347.995056 778.666992,346.072083 
	C797.319031,343.761475 801.168152,339.257660 802.408813,320.482117 
	C802.770752,315.003296 802.803772,309.491364 802.718445,303.998810 
	C802.671204,300.957611 803.754211,299.994171 806.788574,299.998962 
	C854.278320,300.074127 901.768250,300.051636 949.684692,300.051636 
	C949.684692,354.279510 949.684692,408.629425 949.684692,463.379211 
	C947.877319,463.379211 946.089539,463.379242 944.301697,463.379242 
	C852.981323,463.379211 761.660889,463.417969 670.340637,463.309692 
	C662.536560,463.300446 654.733582,462.312714 646.494507,461.678040 
z"/>
<path fill="currentColor" opacity="1.000000" stroke="none"
	d="
M134.187714,173.160400 
	C152.700699,158.129807 174.317154,153.240570 196.990601,152.947495 
	C236.814056,152.432785 276.648315,152.739044 316.478058,152.730209 
	C378.806061,152.716400 441.134094,152.726532 503.462097,152.726532 
	C505.416901,152.726532 507.371704,152.726532 509.603088,152.726532 
	C509.603088,184.157379 509.603088,215.061996 509.603088,246.606308 
	C507.354370,246.606308 505.411560,246.602905 503.468750,246.606796 
	C440.641205,246.732712 377.813629,246.847427 314.986176,247.011841 
	C310.661072,247.023163 306.253723,246.960587 302.036957,247.748108 
	C298.193695,248.465881 294.138855,249.654343 290.917725,251.765213 
	C284.269012,256.122253 284.806061,266.533051 292.169403,269.299133 
	C298.534851,271.690338 305.698151,272.843628 312.533325,272.948975 
	C346.522552,273.472595 380.524048,273.213043 414.512756,273.756927 
	C431.839813,274.034149 448.550842,277.929169 463.979462,286.145325 
	C488.543518,299.226257 502.230072,319.938385 506.608643,347.226318 
	C509.397217,364.605164 508.740295,381.756500 504.067871,398.708099 
	C495.482971,429.854218 474.377747,448.307251 444.155304,457.384460 
	C430.170074,461.584839 415.797394,463.277832 401.256989,463.289551 
	C301.932251,463.369659 202.607437,463.361237 103.282639,463.373413 
	C102.127129,463.373535 100.971603,463.268036 99.464233,463.194763 
	C99.464233,433.194611 99.464233,403.304443 99.464233,372.812195 
	C101.377090,372.720093 103.286575,372.548279 105.196114,372.547821 
	C164.357727,372.533569 223.519470,372.591125 282.680786,372.458832 
	C289.301727,372.444031 295.982758,371.746796 302.521820,370.671906 
	C308.680511,369.659515 312.318268,365.329132 312.745819,359.962494 
	C313.145752,354.942078 310.344086,350.093323 304.331024,348.390045 
	C298.021545,346.602753 291.317413,345.458099 284.771057,345.387146 
	C255.943573,345.074738 227.105118,345.595764 198.282013,345.122498 
	C180.829437,344.835876 163.370346,343.810852 146.432419,338.566010 
	C119.652061,330.273499 104.473930,311.473480 99.246201,284.889313 
	C93.564735,255.997833 97.493782,227.940994 111.124649,201.596146 
	C116.768822,190.687454 124.524040,181.343262 134.187714,173.160400 
z"/>
<path fill="currentColor" opacity="1.000000" stroke="none"
	d="
M954.086182,559.994141 
	C956.646484,554.356934 958.859192,548.943604 961.705750,543.887207 
	C962.723267,542.079956 965.197327,540.129700 967.138733,539.981873 
	C973.556213,539.493286 980.034119,539.797607 987.272888,539.797607 
	C985.849548,542.635864 984.649963,545.088684 983.398254,547.514648 
	C969.827209,573.816467 956.201660,600.090332 942.730713,626.443176 
	C941.087158,629.658569 939.357239,631.039917 935.480225,630.694946 
	C929.559448,630.168091 923.557190,630.556885 916.577576,630.556885 
	C919.637390,624.476501 922.278259,619.237976 924.910706,613.995178 
	C928.345642,607.154175 931.947876,600.388000 935.082275,593.411743 
	C935.862122,591.676147 935.846558,588.870422 934.963867,587.213135 
	C927.773071,573.712585 920.289307,560.368042 912.894775,546.976074 
	C912.492432,546.247375 912.246216,545.332275 911.651123,544.833618 
	C910.734375,544.065430 909.578369,543.582703 908.523926,542.978882 
	C908.042297,543.940369 907.197998,544.882446 907.145325,545.866882 
	C906.969971,549.143250 907.078979,552.434875 907.078979,556.249634 
	C902.494751,556.249634 898.586121,556.249634 894.698486,556.249634 
	C894.698486,564.224915 894.624573,571.651917 894.730896,579.076294 
	C894.781128,582.585632 896.891907,583.864319 900.103455,582.814819 
	C903.210815,581.799438 904.616150,582.696533 905.415833,585.875488 
	C906.457153,590.015564 908.029968,594.021851 909.449829,598.314880 
	C901.464417,602.129150 893.549438,603.830200 885.480225,600.935059 
	C876.613525,597.753845 873.693481,590.065979 873.252686,581.487000 
	C872.835144,573.361389 873.162903,565.197510 873.162903,556.479126 
	C870.318054,556.336304 867.740662,556.206909 864.723755,556.055420 
	C864.723755,550.692871 864.723755,545.495972 864.723755,539.844177 
	C867.321411,539.658936 869.929565,539.472900 872.965942,539.256287 
	C872.965942,532.340698 872.965942,525.410217 872.965942,518.076538 
	C880.092163,518.076538 886.803528,518.076538 893.985657,518.076538 
	C893.985657,524.967529 893.985657,531.893799 893.985657,539.997681 
	C902.016235,539.997681 909.617432,540.352356 917.174133,539.923279 
	C932.519348,539.052002 932.494751,538.884888 939.455627,552.584412 
	C942.393005,558.365479 945.407043,564.107605 948.874878,570.812073 
	C950.776978,566.924072 952.382874,563.641479 954.086182,559.994141 
z"/>
<path fill="currentColor" opacity="1.000000" stroke="none"
	d="
M558.886841,581.791138 
	C571.419006,580.098267 577.731750,574.208862 578.482300,563.458374 
	C571.362427,563.458374 564.254700,563.458374 556.820312,563.458374 
	C556.820312,557.470764 556.820312,551.928772 556.820312,546.236633 
	C557.870178,546.095825 558.669556,545.896301 559.469116,545.895203 
	C573.085754,545.876099 586.702332,545.881470 600.138855,545.881470 
	C608.342346,589.716858 574.791565,607.716248 545.428528,600.738953 
	C523.121948,595.438477 508.301910,573.926941 509.759460,548.939636 
	C511.809113,513.801941 545.272522,492.496490 577.294312,506.320343 
	C583.361267,508.939453 588.541565,513.612488 594.892212,517.845215 
	C589.270142,523.866089 584.688782,528.772461 581.073425,532.644287 
	C574.401794,529.196594 568.783142,525.289734 562.552185,523.322327 
	C554.421082,520.754883 547.117188,523.999451 541.408997,530.137878 
	C530.165405,542.228943 531.278748,564.779114 543.479614,576.000793 
	C547.731262,579.911255 552.756470,581.734253 558.886841,581.791138 
z"/>
<path fill="currentColor" opacity="1.000000" stroke="none"
	d="
M1095.037354,435.000000 
	C1095.037354,444.633179 1095.037354,453.766357 1095.037354,463.137756 
	C1071.289429,463.137756 1047.903931,463.137756 1024.231812,463.137756 
	C1024.231812,439.385925 1024.231812,415.811615 1024.231812,391.948059 
	C1047.800171,391.948059 1071.178101,391.948059 1095.037354,391.948059 
	C1095.037354,406.256714 1095.037354,420.378357 1095.037354,435.000000 
z"/>
<path fill="currentColor" opacity="1.000000" stroke="none"
	d="
M150.775024,523.818237 
	C146.295517,523.530334 142.044296,522.661316 138.178055,523.521912 
	C135.807236,524.049622 132.895294,526.953369 132.326569,529.299316 
	C131.842743,531.294983 133.757965,534.862366 135.682068,536.245422 
	C139.686478,539.123840 144.496155,540.850525 148.797867,543.354553 
	C154.663528,546.769165 161.055557,549.704468 166.003906,554.189148 
	C180.078766,566.945312 175.112289,591.207214 157.425079,598.290649 
	C138.838043,605.734314 117.484245,602.315063 101.091690,588.942993 
	C104.481377,583.075684 107.926056,577.113220 111.660011,570.649963 
	C114.885025,572.800598 117.843475,574.817200 120.845604,576.766479 
	C127.092171,580.822266 133.879898,582.580627 141.295547,581.280701 
	C145.290314,580.580505 148.780228,578.823730 149.709137,574.542053 
	C150.646820,570.219910 148.170700,567.154236 144.693649,565.050720 
	C141.281799,562.986633 137.658401,561.272156 134.128021,559.403992 
	C130.453293,557.459412 126.678658,555.680481 123.123993,553.536804 
	C114.422668,548.289429 108.889458,540.966492 109.448311,530.324890 
	C110.070053,518.485901 116.526794,510.302338 127.014160,505.698273 
	C141.649887,499.272980 155.707092,502.750916 169.166000,509.827362 
	C169.975983,510.253204 170.512756,512.675171 170.085938,513.724792 
	C168.091461,518.629517 165.714050,523.378540 163.282364,528.593140 
	C159.111847,527.000854 155.138794,525.483887 150.775024,523.818237 
z"/>
<path fill="currentColor" opacity="1.000000" stroke="none"
	d="
M684.863342,541.796875 
	C696.360413,535.888062 707.080688,537.785950 715.835754,542.834595 
	C719.074829,541.391846 720.989319,539.908813 722.998047,539.767822 
	C728.119751,539.408386 733.283569,539.648132 738.851318,539.648132 
	C738.851318,559.836792 738.851318,579.697998 738.851318,600.091370 
	C732.729858,600.091370 726.465393,600.231445 720.220825,599.942627 
	C719.268127,599.898621 718.407166,597.870117 717.206116,596.393494 
	C708.732849,601.830322 699.165222,604.300293 688.575867,600.472290 
	C681.582031,597.943970 676.688599,593.187744 673.293579,586.862854 
	C664.765747,570.975403 669.742310,551.424438 684.863342,541.796875 
M714.324524,559.105774 
	C713.494812,558.552124 712.709045,557.913208 711.828064,557.459045 
	C706.784851,554.858948 699.752563,555.819153 695.503967,559.642761 
	C691.263672,563.458679 689.775696,570.260620 691.985596,575.725586 
	C694.291321,581.427490 698.817871,584.254700 705.302490,584.310486 
	C711.077576,584.360168 715.399780,581.904297 717.677673,576.709717 
	C720.371948,570.565735 719.587952,564.687195 714.324524,559.105774 
z"/>
<path fill="currentColor" opacity="1.000000" stroke="none"
	d="
M252.643402,559.525146 
	C259.502502,582.230347 245.586807,601.008240 221.420380,602.221497 
	C212.227798,602.682983 203.518799,601.228271 195.802032,595.827942 
	C179.998993,584.768677 177.857010,563.213684 191.157562,549.236084 
	C208.908188,530.581909 242.068573,535.941528 252.643402,559.525146 
M218.573914,584.280945 
	C226.366714,584.032898 231.279449,580.008179 232.566727,572.817505 
	C233.716736,566.393555 229.900269,559.580872 223.753815,557.120178 
	C218.208633,554.900269 213.256927,556.286865 208.994064,560.040283 
	C204.575775,563.930481 203.382217,569.060547 205.177216,574.542908 
	C207.107529,580.438660 211.434433,583.735535 218.573914,584.280945 
z"/>
<path fill="currentColor" opacity="1.000000" stroke="none"
	d="
M489.967621,600.158386 
	C485.683014,600.158386 481.887360,600.158386 477.599365,600.158386 
	C477.599365,589.921509 477.602875,580.115662 477.595642,570.309814 
	C477.594543,568.811707 477.668182,567.298889 477.494202,565.817993 
	C476.756409,559.537659 472.530487,555.405334 466.835815,555.290100 
	C461.134308,555.174683 455.898041,559.559875 455.269745,565.607910 
	C454.790161,570.224854 455.017792,574.918640 454.994385,579.578613 
	C454.961060,586.213440 454.985931,592.848633 454.985931,599.863159 
	C447.805359,599.863159 441.103546,599.863159 434.111633,599.863159 
	C434.111633,579.893494 434.111633,560.019409 434.111633,540.060059 
	C441.058655,540.060059 447.631470,540.060059 454.457520,540.060059 
	C454.652069,541.916809 454.798004,543.309631 455.009186,545.324890 
	C461.242218,540.689880 467.592285,537.930542 475.152191,538.268311 
	C488.910065,538.882812 498.508728,548.501770 498.578491,562.259827 
	C498.640137,574.415466 498.650360,586.571350 498.662506,598.727173 
	C498.662811,599.022278 498.417999,599.317566 498.046295,600.158386 
	C495.675995,600.158386 493.066254,600.158386 489.967621,600.158386 
z"/>
<path fill="currentColor" opacity="1.000000" stroke="none"
	d="
M382.033875,580.895935 
	C388.379059,586.922974 396.962524,587.232361 403.912750,581.373047 
	C406.471741,579.215759 408.289825,579.280212 410.906219,580.663879 
	C414.389801,582.505981 418.033447,584.045471 421.914398,585.857849 
	C416.602692,595.724915 408.306915,600.252625 398.156372,601.772217 
	C382.931885,604.051697 365.165314,598.079651 359.169220,579.737061 
	C352.676483,559.874939 367.289825,539.339478 388.696381,538.331116 
	C403.681702,537.625244 415.598145,543.720215 420.196686,555.477539 
	C422.255157,560.740479 422.546906,566.694397 423.762238,572.963135 
	C408.384705,572.963135 393.985474,572.963135 378.221680,572.963135 
	C379.691528,576.089905 380.749359,578.340271 382.033875,580.895935 
M383.795959,561.865906 
	C389.977356,561.865906 396.158722,561.865906 402.539917,561.865906 
	C400.226654,555.035645 396.530762,551.987122 391.026123,551.912231 
	C385.670380,551.839417 381.273041,555.298340 379.008423,561.688354 
	C380.385681,561.751282 381.634888,561.808411 383.795959,561.865906 
z"/>
<path fill="currentColor" opacity="1.000000" stroke="none"
	d="
M279.536499,503.476318 
	C289.949219,496.071472 300.052307,497.454865 310.767090,503.482178 
	C308.682648,507.910400 306.869904,512.336243 304.483429,516.427490 
	C303.885742,517.452148 301.407074,517.877625 299.855072,517.759705 
	C293.765686,517.297241 291.890503,518.618225 291.656036,524.592346 
	C291.469055,529.356384 291.618286,534.133545 291.618286,539.161987 
	C296.104889,539.362427 300.180511,539.544495 304.482208,539.736633 
	C304.482208,545.273743 304.482208,550.365112 304.482208,556.045288 
	C300.184753,556.045288 295.956818,556.045288 291.157776,556.045288 
	C291.157776,570.966125 291.157776,585.320374 291.157776,599.943237 
	C283.990356,599.943237 277.405731,599.943237 270.204102,599.943237 
	C270.204102,585.634888 270.204102,571.390320 270.204102,556.586365 
	C267.079132,556.420715 264.524841,556.285339 261.833740,556.142700 
	C261.833740,550.567688 261.833740,545.204163 261.833740,539.693726 
	C264.631378,539.474915 266.927673,539.295349 269.608185,539.085693 
	C270.265564,526.567505 268.901337,513.466980 279.536499,503.476318 
z"/>
<path fill="currentColor" opacity="1.000000" stroke="none"
	d="
M774.910706,549.016846 
	C778.201477,556.660706 781.333130,563.957581 784.944519,572.372131 
	C786.724854,568.578491 788.108032,565.693176 789.438171,562.783691 
	C792.134766,556.885254 795.131775,551.095032 797.368469,545.025635 
	C798.900635,540.868042 801.282410,539.482666 805.493591,539.661621 
	C811.439392,539.914307 817.403992,539.725586 823.954590,539.725586 
	C823.239624,541.434265 822.796509,542.768616 822.150330,543.996094 
	C812.854004,561.656799 803.457886,579.265686 794.290222,596.992676 
	C792.891907,599.696716 791.104675,599.961792 788.457214,600.373169 
	C780.379822,601.628540 776.115479,598.535339 772.640503,591.000061 
	C765.473938,575.459656 757.036743,560.505615 749.145386,545.298340 
	C748.329224,543.725586 747.668579,542.072144 746.796082,540.148010 
	C754.681335,540.148010 762.186584,539.525757 769.464111,540.538940 
	C771.563232,540.831177 773.007263,545.829285 774.910706,549.016846 
z"/>
<path fill="currentColor" opacity="1.000000" stroke="none"
	d="
M334.336853,517.738037 
	C337.455444,517.482056 338.214844,518.810364 338.162994,521.307495 
	C338.042786,527.096619 338.124756,532.889893 338.124756,539.420715 
	C341.114685,539.420715 343.720825,539.611694 346.287415,539.374695 
	C349.907990,539.040466 350.914642,540.637695 350.703674,544.009949 
	C350.466583,547.799988 350.649139,551.616272 350.649139,555.985352 
	C346.620148,556.168640 342.894043,556.338196 338.821320,556.523499 
	C338.821320,564.489380 338.705872,572.373230 338.984772,580.243103 
	C339.015533,581.111084 341.220612,582.360779 342.566315,582.602112 
	C344.095612,582.876343 345.792480,582.215942 347.933411,581.880920 
	C349.678101,587.275269 351.388153,592.562439 353.061127,597.734985 
	C339.304382,606.896301 321.769531,601.857544 318.260040,587.906799 
	C317.258392,583.924988 317.041168,579.693726 316.893494,575.561584 
	C316.674042,569.421143 316.836609,563.267090 316.836609,556.636047 
	C313.939117,556.407532 311.230713,556.193970 308.327209,555.964966 
	C308.327209,550.507019 308.327209,545.281250 308.327209,539.751587 
	C311.200165,539.528442 313.802673,539.326294 317.239471,539.059387 
	C317.239471,532.097107 317.239471,525.194336 317.239471,517.705261 
	C323.343750,517.705261 328.614594,517.705261 334.336853,517.738037 
z"/>
<path fill="currentColor" opacity="1.000000" stroke="none"
	d="
M635.019165,574.141724 
	C635.015137,582.910461 635.015137,591.198364 635.015137,599.843445 
	C627.687561,599.843445 620.971619,599.843445 613.954956,599.843445 
	C613.954956,579.921448 613.954956,560.168274 613.954956,539.988037 
	C620.906555,539.988037 627.609863,539.988037 634.617798,539.988037 
	C634.617798,542.316589 634.617798,544.573608 634.617798,548.338257 
	C643.727844,537.824402 653.709839,535.809326 665.781860,542.049866 
	C663.118896,547.755188 660.489014,553.389648 657.734436,559.291321 
	C656.023010,558.840759 654.609924,558.523315 653.230408,558.096985 
	C641.966919,554.615662 635.312805,559.392029 635.057251,571.162598 
	C635.039124,571.995239 635.034302,572.828125 635.019165,574.141724 
z"/>
<path fill="currentColor" opacity="1.000000" stroke="none"
	d="
M832.060608,543.387695 
	C833.208191,541.913696 834.311523,540.088501 835.512390,540.021973 
	C841.130005,539.710449 846.774475,539.883667 852.797180,539.883667 
	C852.797180,560.055603 852.797180,579.764954 852.797180,599.861816 
	C845.999390,599.861816 839.314575,599.861816 832.061218,599.861816 
	C832.061218,581.073425 832.061218,562.460083 832.060608,543.387695 
z"/>
<path fill="currentColor" opacity="1.000000" stroke="none"
	d="
M848.854370,504.977478 
	C857.462524,512.005371 857.108154,522.521362 848.450806,526.815002 
	C843.314392,529.362427 836.677429,527.963867 833.106567,523.581543 
	C829.633301,519.319214 829.565796,512.837097 832.947754,508.327393 
	C836.496887,503.594696 842.277710,502.281860 848.854370,504.977478 
z"/>


</svg>