<svg width="195" height="79" viewBox="0 0 195 79" fill="currentColor" xmlns="http://www.w3.org/2000/svg">
<path d="M64.9022 16.0776C64.4833 16.0776 64.1116 15.8054 63.9912 15.4023C61.316 6.49178 53.0494 0 43.2699 0C33.4903 0 25.2238 6.49178 22.5485 15.4023C22.4281 15.8054 22.0564 16.0776 21.6376 16.0776C9.69061 16.0776 0 25.7682 0 37.7152C0 49.6622 9.69061 59.3527 21.6376 59.3527C32.8098 59.3527 42.0029 67.8182 43.1495 78.6815C43.16 78.7443 43.2071 78.7862 43.2699 78.7862C43.3327 78.7862 43.385 78.7443 43.3903 78.6815C44.5421 67.8182 53.7352 59.3527 64.9074 59.3527C76.8544 59.3527 86.545 49.6674 86.545 37.7152C86.545 25.763 76.8544 16.0776 64.9074 16.0776" fill="currentColor"/>
<path d="M132.317 59.4635C130.495 59.4635 129.024 57.9871 129.024 56.1705V26.481C129.024 24.6591 130.501 23.188 132.317 23.188C134.134 23.188 135.61 24.6644 135.61 26.481V56.1705C135.61 57.9924 134.134 59.4635 132.317 59.4635Z" fill="currentColor"/>
<path d="M119.151 23.1816H99.3771C97.6076 23.1816 96.1155 24.5585 96.037 26.3281C95.9532 28.218 97.4609 29.7729 99.3299 29.7729H105.11C105.565 29.7729 105.937 30.1446 105.937 30.6001V56.1223C105.937 57.8918 107.314 59.3839 109.083 59.4624C110.968 59.5462 112.528 58.0384 112.528 56.1694V30.5949C112.528 30.1394 112.895 29.7729 113.35 29.7729H119.104C120.873 29.7729 122.365 28.396 122.444 26.6265C122.528 24.7365 121.02 23.1816 119.151 23.1816Z" fill="currentColor"/>
<path d="M132.318 9.98362C135.051 9.98362 137.265 7.76908 137.265 5.03624C137.265 2.30341 135.051 0.0888672 132.318 0.0888672C129.585 0.0888672 127.37 2.30865 127.37 5.03624C127.37 7.76384 129.585 9.98362 132.318 9.98362Z" fill="currentColor"/>
<path d="M190.058 59.4636C188.236 59.4636 186.765 57.9872 186.765 56.1706V39.6689C186.765 37.847 188.241 36.3759 190.058 36.3759C191.874 36.3759 193.351 37.8522 193.351 39.6689V56.1706C193.351 57.9925 191.874 59.4636 190.058 59.4636Z" fill="currentColor"/>
<path d="M190.053 33.0713C192.786 33.0713 195 30.8567 195 28.1239C195 25.3911 192.78 23.1765 190.053 23.1765C187.325 23.1765 185.105 25.3963 185.105 28.1239C185.105 30.8515 187.32 33.0713 190.053 33.0713Z" fill="currentColor"/>
<path d="M175.164 59.4625C173.352 59.4415 171.912 57.9285 171.912 56.1171V39.741C171.912 39.3222 171.358 39.1651 171.138 39.5264L164.002 51.2797C163.405 52.2639 162.337 52.8659 161.185 52.8659C160.034 52.8659 158.966 52.2639 158.369 51.2797L151.228 39.5211C151.008 39.1651 150.458 39.3169 150.458 39.7358V56.1171C150.458 57.9285 149.018 59.4363 147.207 59.4625C145.364 59.4886 143.867 58.0018 143.867 56.1694V26.4852C143.867 25.0088 144.851 23.7105 146.275 23.3126C147.699 22.9147 149.212 23.5116 149.982 24.7785L160.835 42.6466C160.997 42.9136 161.379 42.9136 161.541 42.6466L172.389 24.7785C173.159 23.5168 174.671 22.9147 176.096 23.3126C177.52 23.7105 178.504 25.0088 178.504 26.4852V56.1694C178.504 58.0018 177.006 59.4886 175.164 59.4625Z" fill="currentColor"/>
</svg>
